<svg width="82" height="82" viewBox="0 0 82 82" fill="none" xmlns="http://www.w3.org/2000/svg">
<path d="M19.0744 15.8138C17.4173 17.308 17.6935 21.5795 19.0744 27.8055C23 34.8138 54.9772 22.8247 54.9772 22.8247C54.3887 18.3996 52.6941 13.1324 50.8346 11.4556C48.7633 9.58781 21.1457 13.946 19.0744 15.8138Z" fill="#FF92C0"/>
<path d="M54.9772 22.8247C54.9772 22.8247 23 34.8138 19.0744 27.8055C17.6935 21.5795 17.4173 17.308 19.0744 15.8138C21.1457 13.946 48.7633 9.58781 50.8346 11.4556C52.6941 13.1324 54.3887 18.3996 54.9772 22.8247ZM54.9772 22.8247C65.5 19.3137 68 18.3137 75 12.8631" stroke="#FF92C0" stroke-width="4" stroke-linecap="round" stroke-linejoin="round"/>
<path d="M77.8048 68.0625C73.9109 72.404 10.686 73.2558 6.56304 69.5346C0.607607 65.1932 3.65954 32.7838 4.80481 29.0625C5.95009 25.3413 36.3048 25.0625 37.8048 27.0625C41.1372 31.5057 39.9724 36.6491 41.8048 37.0625C43.6373 37.476 41.8048 30.5625 43.8048 27.0625C45.3491 24.36 69.8048 23.5625 72.9891 25.0625C75.0076 26.0134 77.3921 37.2569 78.5382 48.0625C79.51 57.2239 79.5915 66.0706 77.8048 68.0625Z" fill="#47BC76"/>
<path d="M78.5382 48.0625C79.51 57.2239 79.5915 66.0706 77.8048 68.0625C73.9109 72.404 10.686 73.2558 6.56304 69.5346C0.607607 65.1932 3.65954 32.7838 4.80481 29.0625C5.95009 25.3413 36.3048 25.0625 37.8048 27.0625C41.1372 31.5057 39.9724 36.6491 41.8048 37.0625C43.6373 37.476 41.8048 30.5625 43.8048 27.0625C45.3491 24.36 69.8048 23.5625 72.9891 25.0625C75.0076 26.0134 77.3921 37.2569 78.5382 48.0625ZM78.5382 48.0625C63.1271 49.3959 30.4048 52.4625 22.8048 54.0625" stroke="black" stroke-width="4" stroke-linecap="round" stroke-linejoin="round"/>
<path d="M12.8048 41.0626L30.8048 39.0626" stroke="black" stroke-width="4" stroke-linecap="round"/>
<path d="M50.8048 37.0626C55.4715 37.0626 65.7048 37.0626 69.3048 37.0626" stroke="black" stroke-width="4" stroke-linecap="round"/>
<path d="M24 47.5C11.5 47.5 8.33333 38.5 8.99999 33.5L35 32.75H41.5H47.5L71.5 32C73 40.5 66.5399 45.5 58.5 45.5C50 45.5 44.5 43.5 41.5 40.5C40.3333 42.5 36.4258 47.5 24 47.5Z" fill="black" stroke="black" stroke-linejoin="round"/>
<path d="M16.5 42L20.5 36.5" stroke="white" stroke-width="4" stroke-linecap="round"/>
<path d="M13 37.5L13.5 37" stroke="white" stroke-width="4" stroke-linecap="round"/>
</svg>
