<svg width="82" height="82" viewBox="0 0 82 82" fill="none" xmlns="http://www.w3.org/2000/svg">
<path d="M18.9429 17.0395C17.3468 18.5986 17.793 22.8557 19.421 29.0217C27.5 33.1306 55.0967 22.6135 55.0967 22.6135C54.3322 18.2154 52.429 13.0199 50.5042 11.4186C48.36 9.63487 20.9381 15.0906 18.9429 17.0395Z" fill="#FF92C0"/>
<path d="M55.0967 22.6135C55.0967 22.6135 27.5 33.1306 19.421 29.0217C17.793 22.8557 17.3468 18.5986 18.9429 17.0395C20.9381 15.0906 48.36 9.63487 50.5042 11.4186C52.429 13.0199 54.3322 18.2154 55.0967 22.6135ZM55.0967 22.6135C65.4712 18.6858 67.9293 17.587 74.7065 11.8616" stroke="#FF92C0" stroke-width="4" stroke-linecap="round" stroke-linejoin="round"/>
<path d="M77.8048 69.1931C73.9109 73.5346 10.686 74.3865 6.56304 70.6652C0.607607 66.3238 3.65954 32.9144 4.80481 29.1932C5.95009 25.4719 36.3048 25.1932 37.8048 27.1932C41.1372 31.6363 39.9724 36.7797 41.8048 37.1931C43.6373 37.6066 41.8048 30.6931 43.8048 27.1932C45.3491 24.4906 69.8048 23.6932 72.9891 25.1932C75.0076 26.144 78.7666 46.0681 77.8048 47.1306C76.8431 48.1931 23.5 45.1306 22.8048 54.1931C22.1096 63.2557 77.8658 52.6931 79 54.1931C80.1342 55.6931 79.2995 67.5267 77.8048 69.1931Z" fill="#47BC76" stroke="black" stroke-width="4" stroke-linecap="round" stroke-linejoin="round"/>
<path d="M24.0836 45.5C11.5836 45.5 8.41697 36.5 9.08364 31.5L35.0836 30.75H41.5836H47.5836L71.5836 30C73.0836 38.5 66.6236 43.5 58.5836 43.5C50.0837 43.5 44.5836 41.5 41.5836 38.5C40.417 40.5 36.5094 45.5 24.0836 45.5Z" fill="black" stroke="black" stroke-linejoin="round"/>
<path d="M16.5836 40L20.5836 34.5" stroke="white" stroke-width="4" stroke-linecap="round"/>
<path d="M13.0836 35.5L13.5836 35" stroke="white" stroke-width="4" stroke-linecap="round"/>
</svg>
