<svg width="82" height="82" viewBox="0 0 82 82" fill="none" xmlns="http://www.w3.org/2000/svg">
<path d="M19.0744 15.8138C17.4173 17.308 17.6935 21.5795 19.0744 27.8055C25 33 54.9772 22.8247 54.9772 22.8247C54.3887 18.3996 52.6941 13.1324 50.8346 11.4556C48.7633 9.58781 21.1457 13.946 19.0744 15.8138Z" fill="#FF92C0"/>
<path d="M54.9772 22.8247C54.9772 22.8247 25 33 19.0744 27.8055C17.6935 21.5795 17.4173 17.308 19.0744 15.8138C21.1457 13.946 48.7633 9.58781 50.8346 11.4556C52.6941 13.1324 54.3887 18.3996 54.9772 22.8247ZM54.9772 22.8247C65.5 19.3137 68 18.3137 75 12.8631" stroke="#FF92C0" stroke-width="4" stroke-linecap="round" stroke-linejoin="round"/>
<path d="M77.8048 68.0625C73.9109 72.404 10.686 73.2558 6.56304 69.5346C0.607607 65.1932 3.65954 32.7838 4.80481 29.0625C5.95009 25.3413 36.3048 25.0625 37.8048 27.0625C41.1372 31.5057 39.9724 36.6491 41.8048 37.0625C43.6373 37.476 41.8048 30.5625 43.8048 27.0625C45.3491 24.36 69.8048 23.5625 72.9891 25.0625C75.0076 26.0134 79.5 47 78.5382 48.0625C77.5765 49.1251 23.5 48.0625 22.8048 54.0625C22.1096 60.0625 77.8658 52.5625 79 54.0625C80.1342 55.5625 79.2995 66.3961 77.8048 68.0625Z" fill="#47BC76" stroke="black" stroke-width="4" stroke-linecap="round" stroke-linejoin="round"/>
<path d="M12.8048 41.0626L30.8048 39.0626" stroke="black" stroke-width="4" stroke-linecap="round"/>
<path d="M50.8048 37.0626C55.4715 37.0626 65.7048 37.0626 69.3048 37.0626" stroke="black" stroke-width="4" stroke-linecap="round"/>
<path d="M24.0836 47.5C11.5836 47.5 8.41697 38.5 9.08364 33.5L35.0836 32.75H41.5836H47.5836L71.5836 32C73.0836 40.5 66.6236 45.5 58.5836 45.5C50.0837 45.5 44.5836 43.5 41.5836 40.5C40.417 42.5 36.5094 47.5 24.0836 47.5Z" fill="black" stroke="black" stroke-linejoin="round"/>
<path d="M16.5836 42L20.5836 36.5" stroke="white" stroke-width="4" stroke-linecap="round"/>
<path d="M13.0836 37.5L13.5836 37" stroke="white" stroke-width="4" stroke-linecap="round"/>
</svg>
