<svg width="82" height="82" viewBox="0 0 82 82" fill="none" xmlns="http://www.w3.org/2000/svg">
<path d="M17.8282 15.8801C16.4056 17.599 17.2988 21.7852 19.5687 27.7448C24.47 34.1091 54.3684 17.6056 54.3684 17.6056C53.1438 13.3128 50.7027 8.34732 48.6195 6.95821C46.299 5.41084 19.6065 13.7314 17.8282 15.8801Z" fill="#FF92C0"/>
<path d="M54.3684 17.6056C54.3684 17.6056 24.47 34.1091 19.5687 27.7448C17.2988 21.7852 16.4056 17.599 17.8282 15.8801C19.6065 13.7314 46.299 5.41084 48.6195 6.95821C50.7027 8.34732 53.1438 13.3128 54.3684 17.6056ZM54.3684 17.6056C64.2702 12.6045 66.5986 11.2522 72.7333 4.84335" stroke="#FF92C0" stroke-width="4" stroke-linecap="round" stroke-linejoin="round"/>
<path d="M77.8048 70.0625C73.9109 74.404 10.686 75.2558 6.56304 71.5346C0.607607 67.1932 3.65954 30.7838 4.80481 27.0625C5.95009 23.3413 36.3048 23.0625 37.8048 25.0625C41.1372 29.5057 39.9724 34.6491 41.8048 35.0625C43.6373 35.476 41.8048 28.5625 43.8048 25.0625C45.3491 22.36 69.8048 21.5625 72.9891 23.0625C75.0076 24.0134 76.6587 34.6945 77.8048 45.5001C61.7666 46.4376 40 46.5001 15 48.5001C13.5 61.0001 67.5251 59.5001 78.5 55.0001C79.0028 62.2206 79.2659 68.4336 77.8048 70.0625Z" fill="#47BC76" stroke="black" stroke-width="4" stroke-linecap="round" stroke-linejoin="round"/>
<path d="M12.8048 37.0625C22 35.0625 30.8048 35.0625 30.8048 35.0625" stroke="black" stroke-width="4" stroke-linecap="round"/>
<path d="M50.8048 32.0626C60.5 31 69.3048 32.0626 69.3048 32.0626" stroke="black" stroke-width="4" stroke-linecap="round"/>
</svg>
