<svg width="82" height="82" viewBox="0 0 82 82" fill="none" xmlns="http://www.w3.org/2000/svg">
<path d="M19.9083 12.3187C18.0723 13.5866 17.795 17.8581 18.361 24.2102C21.3495 31.6664 54.6064 23.9035 54.6064 23.9035C54.5937 19.4394 53.5929 13.9975 51.9653 12.0949C50.1523 9.97545 22.2033 10.7338 19.9083 12.3187Z" fill="#FF92C0"/>
<path d="M54.6064 23.9035C54.6064 23.9035 21.3495 31.6664 18.361 24.2102C17.795 17.8581 18.0723 13.5866 19.9083 12.3187C22.2033 10.7338 50.1523 9.97545 51.9653 12.0949C53.5929 13.9975 54.5937 19.4394 54.6064 23.9035ZM54.6064 23.9035C65.4942 21.7796 68.1023 21.1105 75.7471 16.6087" stroke="#FF92C0" stroke-width="4" stroke-linecap="round" stroke-linejoin="round"/>
<path d="M77.8048 68.0625C73.9109 72.404 10.686 73.2558 6.56304 69.5346C0.607607 65.1932 3.65954 32.7838 4.80481 29.0625C5.95009 25.3413 36.3048 25.0625 37.8048 27.0625C41.1372 31.5057 39.9724 36.6491 41.8048 37.0625C43.6373 37.476 41.8048 30.5625 43.8048 27.0625C45.3491 24.36 69.8048 23.5625 72.9891 25.0625C75.0076 26.0134 77.3921 37.2569 78.5382 48.0625C62.5 49.0001 32.5 50.5001 17 50.5001C18.5 60.0001 68 57.5001 78.9749 53.0001C79.4776 60.2206 79.2659 66.4336 77.8048 68.0625Z" fill="#47BC76" stroke="black" stroke-width="4" stroke-linecap="round" stroke-linejoin="round"/>
<path d="M12.8048 40.0625C22.5 40.0625 30.8048 38.0625 30.8048 38.0625" stroke="black" stroke-width="4" stroke-linecap="round"/>
<path d="M50.8048 36.0626C60 37.5 69.3048 36.0626 69.3048 36.0626" stroke="black" stroke-width="4" stroke-linecap="round"/>
</svg>
