<svg width="82" height="82" viewBox="0 0 82 82" fill="none" xmlns="http://www.w3.org/2000/svg">
<g clip-path="url(#clip0)">
<path d="M19.9853 12.0726C18.1376 13.3234 17.8207 17.5921 18.3278 23.9492C21.247 31.4328 54.5745 23.9788 54.5745 23.9788C54.6032 19.5148 53.6529 14.0639 52.0431 12.1462C50.2498 10.0101 22.2949 10.509 19.9853 12.0726Z" fill="#FF92C0"/>
<path d="M54.5745 23.9788C54.5745 23.9788 21.247 31.4328 18.3278 23.9492C17.8207 17.5921 18.1376 13.3234 19.9853 12.0726C22.2949 10.509 50.2498 10.0101 52.0431 12.1462C53.6529 14.0639 54.6032 19.5148 54.5745 23.9788ZM54.5745 23.9788C65.4815 21.956 68.0957 21.3112 75.782 16.8805" stroke="#FF92C0" stroke-width="4" stroke-linecap="round" stroke-linejoin="round"/>
<path d="M77.8048 69.0625C73.9109 73.404 10.686 74.2558 6.56304 70.5346C0.607607 66.1932 3.65954 32.7838 4.80481 29.0625C5.95009 25.3413 36.3048 25.0625 37.8048 27.0625C41.1372 31.5057 39.9724 36.6491 41.8048 37.0625C43.6373 37.476 41.8048 30.5625 43.8048 27.0625C45.3491 24.36 69.8048 23.5625 72.9891 25.0625C75.0076 26.0134 77.3921 37.2569 78.5382 48.0625C60.5 49.0001 14 44.5001 17 58.5001C30.5 59.0001 64 55.0001 80 55.0001C80.3301 61.3445 79.129 67.5862 77.8048 69.0625Z" fill="#47BC76" stroke="black" stroke-width="4" stroke-linecap="round" stroke-linejoin="round"/>
<path d="M16 38.5C24.5 38.5 33.5 39.5 33.5 39.5" stroke="black" stroke-width="4" stroke-linecap="round"/>
<path d="M50.5 37.5C59.5 36 69 35.5 69 35.5" stroke="black" stroke-width="4" stroke-linecap="round"/>
</g>
<defs>
<clipPath id="clip0">
<rect width="82" height="82" fill="white"/>
</clipPath>
</defs>
</svg>
