<svg width="82" height="82" viewBox="0 0 82 82" fill="none" xmlns="http://www.w3.org/2000/svg">
<g clip-path="url(#clip0)">
<path d="M20.5622 10.4386C18.6401 11.5719 18.0577 15.8125 18.1676 22.1888C20.6148 29.8398 54.342 24.4774 54.342 24.4774C54.6489 20.0239 54.0402 14.5244 52.553 12.5101C50.8964 10.2663 22.9647 9.02202 20.5622 10.4386Z" fill="#FF92C0"/>
<path d="M54.342 24.4774C54.342 24.4774 20.6148 29.8398 18.1676 22.1888C18.0577 15.8125 18.6401 11.5719 20.5622 10.4386C22.9647 9.02202 50.8964 10.2663 52.553 12.5101C54.0402 14.5244 54.6489 20.0239 54.342 24.4774ZM54.342 24.4774C65.3539 23.1383 68.0033 22.6577 75.9507 18.7146" stroke="#FF92C0" stroke-width="4" stroke-linecap="round" stroke-linejoin="round"/>
<path d="M77.8048 70.0625C73.9109 74.404 10.686 75.2558 6.56304 71.5346C0.607606 67.1932 3.65954 32.7838 4.80481 29.0625C5.95009 25.3413 36.3048 25.0625 37.8048 27.0625C41.1372 31.5057 39.9724 36.6491 41.8048 37.0625C43.6373 37.476 41.8048 30.5625 43.8048 27.0625C45.3491 24.36 69.8048 23.5625 72.9891 25.0625C75.0076 26.0134 77.3921 37.2569 78.5383 48.0625C60.5 49.0001 7.5 41.5001 17 59.5001C37.8048 62.0001 64 56.0001 80 56.0001C80.3301 62.3445 79.129 68.5862 77.8048 70.0625Z" fill="#47BC76" stroke="black" stroke-width="4" stroke-linecap="round" stroke-linejoin="round"/>
<path d="M15 37.5C23.5 37.5 32.5 38.5 32.5 38.5" stroke="black" stroke-width="4" stroke-linecap="round"/>
<path d="M50.5 36.5C59.5 35 69 34.5 69 34.5" stroke="black" stroke-width="4" stroke-linecap="round"/>
</g>
<defs>
<clipPath id="clip0">
<rect width="82" height="82" fill="white"/>
</clipPath>
</defs>
</svg>
