<svg width="82" height="82" viewBox="0 0 82 82" fill="none" xmlns="http://www.w3.org/2000/svg">
<path d="M20.0827 9.77269C18.2209 11.0025 17.8556 15.2673 18.2905 21.6297C21.1246 29.146 54.5345 22.0706 54.5345 22.0706C54.6139 17.6072 53.7255 12.1459 52.1375 10.2101C50.3686 8.0537 22.4099 8.23544 20.0827 9.77269Z" fill="#FF92C0"/>
<path d="M54.5345 22.0706C54.5345 22.0706 21.1246 29.146 18.2905 21.6297C17.8556 15.2673 18.2209 11.0025 20.0827 9.77269C22.4099 8.23544 50.3686 8.0537 52.1375 10.2101C53.7255 12.1459 54.6139 17.6072 54.5345 22.0706ZM54.5345 22.0706C65.4638 20.1717 68.0852 19.5566 75.8212 15.2134" stroke="#FF92C0" stroke-width="4" stroke-linecap="round" stroke-linejoin="round"/>
<path d="M77.8048 73.0625C73.9109 77.404 10.686 78.2558 6.56304 74.5346C0.607606 70.1932 3.65954 30.7838 4.80481 27.0625C5.95009 23.3413 36.3048 23.0625 37.8048 25.0625C41.1372 29.5057 39.9724 34.6491 41.8048 35.0625C43.6373 35.476 41.8048 28.5625 43.8048 25.0625C45.3491 22.36 69.8048 21.5625 72.9891 23.0625C75.0076 24.0134 77.3921 35.2569 78.5383 46.0625C28.5 49.9999 16.5 53.9999 16.5 60.0001C51.5 58.9999 57.5383 58.4999 78.5383 60.0001C79.9979 68.0001 79.198 71.5093 77.8048 73.0625Z" fill="#47BC76" stroke="black" stroke-width="4" stroke-linecap="round" stroke-linejoin="round"/>
<circle cx="23" cy="38" r="7" fill="white" stroke="black" stroke-width="4"/>
<circle cx="59" cy="35" r="7" fill="white" stroke="black" stroke-width="4"/>
<circle cx="23" cy="38" r="2" fill="black"/>
<circle cx="59" cy="35" r="2" fill="black"/>
</svg>
