<svg width="82" height="82" viewBox="0 0 82 82" fill="none" xmlns="http://www.w3.org/2000/svg">
<path d="M19.684 13.0856C17.8852 14.4058 17.7308 18.6834 18.4792 25.0167C21.6809 32.3839 54.7008 23.668 54.7008 23.668C54.5598 19.2061 53.4029 13.7953 51.7213 11.9402C49.8481 9.87378 21.9325 11.4354 19.684 13.0856Z" fill="#FF92C0"/>
<path d="M54.7008 23.668C54.7008 23.668 21.6809 32.3839 18.4792 25.0167C17.7308 18.6834 17.8852 14.4058 19.684 13.0856C21.9325 11.4354 49.8481 9.87378 51.7213 11.9402C53.4029 13.7953 54.5598 19.2061 54.7008 23.668ZM54.7008 23.668C65.5231 21.2319 68.1109 20.4882 75.6231 15.7684" stroke="#FF92C0" stroke-width="4" stroke-linecap="round" stroke-linejoin="round"/>
<path d="M77.8048 68.0625C73.9109 72.404 10.686 73.2558 6.56304 69.5346C0.607607 65.1932 3.65954 32.7838 4.80481 29.0625C5.95009 25.3413 36.3048 25.0625 37.8048 27.0625C41.1372 31.5057 39.9724 36.6491 41.8048 37.0625C43.6373 37.476 41.8048 30.5625 43.8048 27.0625C45.3491 24.36 69.8048 23.5625 72.9891 25.0625C75.0076 26.0134 77.8539 40.1945 79 51.0001C79.9717 60.1615 79.5915 66.0706 77.8048 68.0625Z" fill="#47BC76"/>
<path d="M79 51.0001C79.9717 60.1615 79.5915 66.0706 77.8048 68.0625C73.9109 72.404 10.686 73.2558 6.56304 69.5346C0.607607 65.1932 3.65954 32.7838 4.80481 29.0625C5.95009 25.3413 36.3048 25.0625 37.8048 27.0625C41.1372 31.5057 39.9724 36.6491 41.8048 37.0625C43.6373 37.476 41.8048 30.5625 43.8048 27.0625C45.3491 24.36 69.8048 23.5625 72.9891 25.0625C75.0076 26.0134 77.8539 40.1945 79 51.0001ZM79 51.0001C60.9618 51.9376 39.5 53.5 17 55.5" stroke="black" stroke-width="4" stroke-linecap="round" stroke-linejoin="round"/>
<circle cx="23" cy="39" r="7" fill="white" stroke="black" stroke-width="4"/>
<circle cx="58" cy="37" r="7" fill="white" stroke="black" stroke-width="4"/>
<circle cx="23" cy="39" r="2" fill="black"/>
<circle cx="58" cy="37" r="2" fill="black"/>
</svg>
