<svg width="82" height="82" viewBox="0 0 82 82" fill="none" xmlns="http://www.w3.org/2000/svg">
<path d="M19.5422 9.9379C17.6548 11.128 17.1992 15.3841 17.4994 21.7543C20.1738 29.3289 53.726 22.9623 53.726 22.9623C53.8998 18.5016 53.1272 13.0227 51.5806 11.0537C49.8577 8.86035 21.9014 8.45025 19.5422 9.9379Z" fill="#FF92C0"/>
<path d="M53.726 22.9623C53.726 22.9623 20.1738 29.3289 17.4994 21.7543C17.1992 15.3841 17.6548 11.128 19.5422 9.9379C21.9014 8.45025 49.8577 8.86035 51.5806 11.0537C53.1272 13.0227 53.8998 18.5016 53.726 22.9623ZM53.726 22.9623C64.693 21.2952 67.3268 20.7357 75.153 16.5572" stroke="#FF92C0" stroke-width="4" stroke-linecap="round" stroke-linejoin="round"/>
<path d="M77.8048 69C73.9109 73.3414 10.686 74.1933 6.56304 70.4721C0.607607 66.1306 3.65954 30.7838 4.80481 27.0625C5.95009 23.3413 36.3048 23.0625 37.8048 25.0625C41.1372 29.5057 39.9724 34.6491 41.8048 35.0625C43.6373 35.476 41.8048 28.5625 43.8048 25.0625C45.3491 22.36 69.8048 21.5625 72.9891 23.0625C75.0076 24.0134 76.6587 37.6944 77.8048 48.5C55 48.5 37.8048 51.5 10 45.5001C16 70.0625 52.3048 51.9999 77.8048 53.5C78.3076 60.7205 79.2659 67.371 77.8048 69Z" fill="#47BC76" stroke="black" stroke-width="4" stroke-linecap="round" stroke-linejoin="round"/>
<path d="M12.5 33.5C20.5 37.5 33 38.5 33 38.5" stroke="black" stroke-width="4" stroke-linecap="round"/>
<path d="M50.8048 37C60.5 35.9374 67.5 30 67.5 30" stroke="black" stroke-width="4" stroke-linecap="round"/>
</svg>
