<svg width="82" height="82" viewBox="0 0 82 82" fill="none" xmlns="http://www.w3.org/2000/svg">
<path d="M19.9083 12.3187C18.0723 13.5866 17.795 17.858 18.361 24.2102C21.3495 31.6664 54.6064 23.9034 54.6064 23.9034C54.5937 19.4394 53.5929 13.9975 51.9653 12.0949C50.1523 9.97543 22.2033 10.7338 19.9083 12.3187Z" fill="#FF92C0"/>
<path d="M54.6064 23.9034C54.6064 23.9034 21.3495 31.6664 18.361 24.2102C17.795 17.858 18.0723 13.5866 19.9083 12.3187C22.2033 10.7338 50.1523 9.97543 51.9653 12.0949C53.5929 13.9975 54.5937 19.4394 54.6064 23.9034ZM54.6064 23.9034C65.4942 21.7795 68.1023 21.1105 75.7471 16.6086" stroke="#FF92C0" stroke-width="4" stroke-linecap="round" stroke-linejoin="round"/>
<path d="M77.8048 68.0625C73.9109 72.4039 10.686 73.2558 6.56304 69.5346C0.607607 65.1931 3.65954 32.7837 4.80481 29.0625C5.95009 25.3413 36.3048 25.0625 37.8048 27.0625C41.1372 31.5057 39.9724 36.649 41.8048 37.0625C43.6373 37.476 41.8048 30.5625 43.8048 27.0625C45.3491 24.36 69.8048 23.5625 72.9891 25.0625C75.0076 26.0134 77.3921 37.2569 78.5382 48.0625C48 50 27 55 13 50C14.5 62.5 68 57.5 78.9749 53C79.4776 60.2205 79.2659 66.4335 77.8048 68.0625Z" fill="#47BC76" stroke="black" stroke-width="4" stroke-linecap="round" stroke-linejoin="round"/>
<path d="M14 35.5C23.5 36.5 33 40 33 40" stroke="black" stroke-width="4" stroke-linecap="round"/>
<path d="M51 39.5C58 36.5 69.5 34.5 69.5 34.5" stroke="black" stroke-width="4" stroke-linecap="round"/>
</svg>
