<svg width="82" height="82" viewBox="0 0 82 82" fill="none" xmlns="http://www.w3.org/2000/svg">
<path d="M20.2332 10.947C18.2882 12.0404 17.6186 16.2681 17.5969 22.6453C19.8858 30.3452 53.7164 25.6794 53.7164 25.6794C54.1151 21.2331 53.6199 15.7222 52.1746 13.6777C50.5645 11.4002 22.6645 9.58026 20.2332 10.947Z" fill="#FF92C0"/>
<path d="M53.7164 25.6794C53.7164 25.6794 19.8858 30.3452 17.5969 22.6453C17.6186 16.2681 18.2882 12.0404 20.2332 10.947C22.6645 9.58026 50.5645 11.4002 52.1746 13.6777C53.6199 15.7222 54.1151 21.2331 53.7164 25.6794ZM53.7164 25.6794C64.7536 24.5676 67.4123 24.1417 75.4393 20.3634" stroke="#FF92C0" stroke-width="4" stroke-linecap="round" stroke-linejoin="round"/>
<path d="M77.8048 68.0625C73.9109 72.404 10.686 73.2558 6.56304 69.5346C0.607607 65.1932 3.65954 32.7838 4.80481 29.0625C5.95009 25.3413 36.3048 25.0625 37.8048 27.0625C41.1372 31.5057 39.9724 36.6491 41.8048 37.0625C43.6373 37.476 41.8048 30.5625 43.8048 27.0625C45.3491 24.36 69.8048 23.5625 72.9891 25.0625C75.0076 26.0134 77.3921 37.2569 78.5382 48.0625C79.51 57.2239 79.5915 66.0706 77.8048 68.0625Z" fill="#47BC76"/>
<path d="M78.5382 48.0625C79.51 57.2239 79.5915 66.0706 77.8048 68.0625C73.9109 72.404 10.686 73.2558 6.56304 69.5346C0.607607 65.1932 3.65954 32.7838 4.80481 29.0625C5.95009 25.3413 36.3048 25.0625 37.8048 27.0625C41.1372 31.5057 39.9724 36.6491 41.8048 37.0625C43.6373 37.476 41.8048 30.5625 43.8048 27.0625C45.3491 24.36 69.8048 23.5625 72.9891 25.0625C75.0076 26.0134 77.3921 37.2569 78.5382 48.0625ZM78.5382 48.0625C63.1271 49.3959 24.5 58 17 50.5001" stroke="black" stroke-width="4" stroke-linecap="round" stroke-linejoin="round"/>
<path d="M13 35C21.5 39 33 39.5 33 39.5" stroke="black" stroke-width="4" stroke-linecap="round"/>
<path d="M51 39C61 38 69 33.5 69 33.5" stroke="black" stroke-width="4" stroke-linecap="round"/>
</svg>
