<svg width="81" height="66" viewBox="0 0 81 66" fill="none" xmlns="http://www.w3.org/2000/svg">
<path d="M18.0744 6.8138C16.4173 8.30803 16.6935 12.5795 18.0744 18.8055C22 25.8138 53.9772 13.8247 53.9772 13.8247C53.3887 9.39957 51.6941 4.13236 49.8346 2.45561C47.7633 0.587813 20.1457 4.946 18.0744 6.8138Z" fill="#FF92C0"/>
<path d="M53.9772 13.8247C53.9772 13.8247 22 25.8138 18.0744 18.8055C16.6935 12.5795 16.4173 8.30803 18.0744 6.8138C20.1457 4.946 47.7633 0.587813 49.8346 2.45561C51.6941 4.13236 53.3887 9.39957 53.9772 13.8247ZM53.9772 13.8247C64.5 10.3137 67 9.31374 74 3.86314" stroke="#FF92C0" stroke-width="4" stroke-linecap="round" stroke-linejoin="round"/>
<path d="M76.8048 60.0625C72.9109 64.404 9.68604 65.2558 5.56304 61.5346C-0.392394 57.1932 2.65954 23.7838 3.80481 20.0625C4.95009 16.3413 35.3048 16.0625 36.8048 18.0625C40.1372 22.5057 38.9724 27.6491 40.8048 28.0625C42.6373 28.476 40.8048 21.5625 42.8048 18.0625C44.3491 15.36 68.8048 14.5625 71.9891 16.0625C74.0076 17.0134 76.3921 28.2569 77.5383 39.0625C62.1271 40.3959 18 39.0625 16 42C6.5 51 55.5 51.5 77.9749 47C78.4776 54.2205 78.2659 58.4336 76.8048 60.0625Z" fill="#47BC76" stroke="black" stroke-width="4" stroke-linecap="round" stroke-linejoin="round"/>
<path d="M13.5 35C23.1952 35 30.5 27 30.5 27" stroke="black" stroke-width="4" stroke-linecap="round"/>
<path d="M50 25.9999C56.5 32.5 68 30 68 30" stroke="black" stroke-width="4" stroke-linecap="round"/>
</svg>
