<svg width="81" height="79" viewBox="0 0 81 79" fill="none" xmlns="http://www.w3.org/2000/svg">
<path d="M19.0827 7.77269C17.2209 9.00249 16.8556 13.2673 17.2905 19.6297C20.1246 27.146 53.5345 20.0706 53.5345 20.0706C53.6139 15.6072 52.7255 10.1459 51.1375 8.21008C49.3686 6.0537 21.4099 6.23544 19.0827 7.77269Z" fill="#FF92C0"/>
<path d="M53.5345 20.0706C53.5345 20.0706 20.1246 27.146 17.2905 19.6297C16.8556 13.2673 17.2209 9.00249 19.0827 7.77269C21.4099 6.23544 49.3686 6.0537 51.1375 8.21008C52.7255 10.1459 53.6139 15.6072 53.5345 20.0706ZM53.5345 20.0706C64.4638 18.1717 67.0852 17.5566 74.8212 13.2134" stroke="#FF92C0" stroke-width="4" stroke-linecap="round" stroke-linejoin="round"/>
<path d="M76.8048 73.0625C72.9109 77.404 9.68604 78.2558 5.56304 74.5346C-0.392394 70.1932 2.65954 28.7838 3.80481 25.0625C4.95009 21.3413 35.3048 21.0625 36.8048 23.0625C40.1372 27.5057 38.9724 32.6491 40.8048 33.0625C42.6373 33.476 40.8048 26.5625 42.8048 23.0625C44.3491 20.36 68.8048 19.5625 71.9891 21.0625C74.0076 22.0134 76.3921 33.2569 77.5383 44.0625C23 45.5001 16.5 56.5 15.5 60.0001C51 62.5 56 60.5001 78 60.5001C79.4597 68.5001 78.198 71.5093 76.8048 73.0625Z" fill="#47BC76" stroke="black" stroke-width="4" stroke-linecap="round" stroke-linejoin="round"/>
</svg>
