<svg width="81" height="69" viewBox="0 0 81 69" fill="none" xmlns="http://www.w3.org/2000/svg">
<path d="M18.684 8.08562C16.8852 9.40582 16.7308 13.6834 17.4792 20.0167C20.6809 27.3839 53.7008 18.668 53.7008 18.668C53.5598 14.2061 52.4029 8.7953 50.7213 6.94022C48.8481 4.87378 20.9325 6.43536 18.684 8.08562Z" fill="#FF92C0"/>
<path d="M53.7008 18.668C53.7008 18.668 20.6809 27.3839 17.4792 20.0167C16.7308 13.6834 16.8852 9.40582 18.684 8.08562C20.9325 6.43536 48.8481 4.87378 50.7213 6.94022C52.4029 8.7953 53.5598 14.2061 53.7008 18.668ZM53.7008 18.668C64.5231 16.2319 67.1109 15.4882 74.6231 10.7684" stroke="#FF92C0" stroke-width="4" stroke-linecap="round" stroke-linejoin="round"/>
<path d="M76.8048 63.0625C72.9109 67.404 9.68604 68.2558 5.56304 64.5346C-0.392393 60.1932 2.65954 27.7838 3.80481 24.0625C4.95009 20.3413 35.3048 20.0625 36.8048 22.0625C40.1372 26.5057 38.9724 31.6491 40.8048 32.0625C42.6373 32.476 40.8048 25.5625 42.8048 22.0625C44.3491 19.36 68.8048 18.5625 71.9891 20.0625C74.0076 21.0134 76.8539 35.1945 78 46.0001C78.9717 55.1615 78.5915 61.0706 76.8048 63.0625Z" fill="#47BC76"/>
<path d="M78 46.0001C78.9717 55.1615 78.5915 61.0706 76.8048 63.0625C72.9109 67.404 9.68604 68.2558 5.56304 64.5346C-0.392393 60.1932 2.65954 27.7838 3.80481 24.0625C4.95009 20.3413 35.3048 20.0625 36.8048 22.0625C40.1372 26.5057 38.9724 31.6491 40.8048 32.0625C42.6373 32.476 40.8048 25.5625 42.8048 22.0625C44.3491 19.36 68.8048 18.5625 71.9891 20.0625C74.0076 21.0134 76.8539 35.1945 78 46.0001ZM78 46.0001C59.9618 46.9376 38.5 48.5 16 50.5" stroke="black" stroke-width="4" stroke-linecap="round" stroke-linejoin="round"/>
</svg>
