<svg width="164" height="198" viewBox="0 0 164 198" fill="none" xmlns="http://www.w3.org/2000/svg">
<rect x="5.42822" y="8.47222" width="150.593" height="189.679" transform="rotate(-2.2878 5.42822 8.47222)" fill="#C4C4C4"/>
<rect x="4.94209" y="10.4621" width="143" height="179" transform="rotate(-2.31568 4.94209 10.4621)" fill="#888888" stroke="white" stroke-width="9"/>
<path d="M100 153.5C103.667 155.833 112.5 165.5 113 180.5" stroke="black" stroke-width="4"/>
<path d="M63.8742 153.535C63.8742 153.535 63.8741 153.535 63.8741 153.535C62.9518 153.36 62.0315 153.849 61.6617 154.712C61.3029 155.549 60.9813 156.874 61.183 158.273C61.3996 159.776 62.2348 161.353 64.1056 162.289C65.9735 163.223 67.9932 162.953 69.4952 162.484C69.7312 162.411 69.9628 162.33 70.1888 162.243C70.2853 162.769 70.4187 163.301 70.598 163.818C71.209 165.579 72.5609 167.648 75.252 167.985C77.5634 168.273 79.4368 167.347 80.7439 166.238C80.9875 166.031 81.2162 165.814 81.4298 165.592C81.7326 165.957 82.0666 166.31 82.433 166.63C83.796 167.823 85.7681 168.685 88.1325 167.897C90.2655 167.186 91.5066 165.385 92.1649 163.911C92.2718 163.671 92.3678 163.431 92.4532 163.194C92.7224 163.298 93.0034 163.389 93.2944 163.463C95.0212 163.903 97.1235 163.705 98.9142 161.914C100.311 160.518 101.141 159.059 101.268 157.515C101.397 155.95 100.773 154.697 100.1 153.8C99.6221 153.163 98.8117 152.87 98.0369 153.054L98.0368 153.054L98.0368 153.054L98.036 153.055L98.0314 153.056L98.0111 153.06L97.9267 153.08C97.8514 153.098 97.7387 153.124 97.5919 153.157C97.2984 153.224 96.869 153.32 96.3309 153.435C95.2542 153.666 93.746 153.974 92.0234 154.281C88.5466 154.902 84.3152 155.5 81 155.5C77.648 155.5 73.3884 155.017 69.9078 154.52C68.1802 154.273 66.6677 154.026 65.5879 153.841C65.0483 153.749 64.6174 153.672 64.3226 153.618C64.1752 153.591 64.0619 153.57 63.986 153.556L63.9007 153.54L63.88 153.536L63.8752 153.536L63.8742 153.535L63.8742 153.535Z" fill="white" stroke="black" stroke-width="4" stroke-linejoin="round"/>
<path d="M116.805 149.749C112.911 154.09 49.686 154.942 45.563 151.221C39.6076 146.879 42.6595 114.47 43.8048 110.749C44.9501 107.028 75.3048 106.749 76.8048 108.749C80.1372 113.192 78.9724 118.335 80.8048 118.749C82.6373 119.162 80.8048 112.249 82.8048 108.749C84.3491 106.046 108.805 105.249 111.989 106.749C114.008 107.7 116.392 118.943 117.538 129.749C118.51 138.91 118.591 147.757 116.805 149.749Z" fill="#C4C4C4"/>
<path d="M117.538 129.749C118.51 138.91 118.591 147.757 116.805 149.749C112.911 154.09 49.686 154.942 45.563 151.221C39.6076 146.879 42.6595 114.47 43.8048 110.749C44.9501 107.028 75.3048 106.749 76.8048 108.749C80.1372 113.192 78.9724 118.335 80.8048 118.749C82.6373 119.162 80.8048 112.249 82.8048 108.749C84.3491 106.046 108.805 105.249 111.989 106.749C114.008 107.7 116.392 118.943 117.538 129.749ZM117.538 129.749C102.127 131.082 69.4048 134.149 61.8048 135.749" stroke="black" stroke-width="4" stroke-linecap="round" stroke-linejoin="round"/>
<path d="M51.8048 122.749L56.5 122.227M69.8048 120.749L56.5 122.227M56.5 122.227C55.3333 121.151 53 118.7 53 117.5" stroke="black" stroke-width="4" stroke-linecap="round"/>
<path d="M89.8048 118.749C92.6989 118.749 97.7339 118.749 102 118.749M108.305 118.749C106.937 118.749 104.613 118.749 102 118.749M102 118.749C104.102 117.333 108.305 114.2 108.305 113" stroke="black" stroke-width="4" stroke-linecap="round"/>
<path d="M61.5 155.5C58.1667 160 50.5 172 51 183" stroke="black" stroke-width="4"/>
<line x1="52" y1="133" x2="52" y2="132" stroke="black" stroke-width="2" stroke-linecap="round" stroke-linejoin="round"/>
</svg>
