<svg width="105" height="63" viewBox="0 0 105 63" fill="none" xmlns="http://www.w3.org/2000/svg">
<path d="M41.4509 57.9141C36.6744 60.253 33.2751 49.7383 26.4619 42.9252C26.4619 42.9252 23.4787 45.9083 21.1217 45.5402C18.7647 45.172 4.77583 26.6228 4.03364 24.4745C2.98392 21.436 7.27462 15.7827 10 18.5081L23.6264 32.1344C39.9779 48.486 47.7674 49.1601 45.4285 53.9365C44.121 56.6066 44.121 56.6066 41.4509 57.9141Z" fill="#F7F7F7"/>
<path d="M97.7723 43.1247C92.9959 45.4636 89.5965 34.9489 82.7833 28.1358C82.7833 28.1358 79.8002 31.1189 77.4431 30.7508C75.0861 30.3826 61.0973 11.8335 60.3551 9.68511C59.3053 6.64659 63.596 0.993286 66.3215 3.7187L79.9478 17.345C96.2994 33.6966 104.089 34.3707 101.75 39.1471C100.442 41.8173 100.442 41.8173 97.7723 43.1247Z" fill="#F7F7F7"/>
<path d="M8.19638 53.7616C6.09363 49.1971 13.701 48.2569 30.215 31.743C28.3515 29.8794 27.3136 27.1901 27.8641 26.6397C28.4145 26.0892 33.8346 21.6009 38.8949 18.4042L40.2926 19.8019L32.0356 28.0588L32.9674 28.9906L42.3891 21.8984L44.0197 23.529L36.6945 32.7177L37.6263 33.6495L45.8832 25.3925L47.2809 26.7902C44.0843 31.8506 39.0454 37.821 39.0454 37.821C38.3573 38.5091 35.8057 37.3336 33.9421 35.4701C17.4281 51.9841 16.488 59.5915 11.9235 57.4887C9.37186 56.3132 9.37185 56.3132 8.19638 53.7616Z" fill="#F7F7F7"/>
<path d="M64.5178 38.9722C62.4151 34.4077 70.0225 33.4676 86.5365 16.9536C84.6729 15.09 83.635 12.4008 84.1855 11.8503C84.736 11.2998 90.1561 6.81151 95.2163 3.61479L96.614 5.01246L88.357 13.2695L89.2888 14.2012L98.7105 7.10896L100.341 8.73958L93.0159 17.9283L93.9477 18.8601L102.205 10.6031L103.602 12.0008C100.406 17.0612 95.3668 23.0316 95.3668 23.0316C94.6788 23.7197 92.1271 22.5442 90.2636 20.6807C73.7496 37.1947 72.8094 44.8021 68.2449 42.6993C65.6933 41.5238 65.6933 41.5238 64.5178 38.9722Z" fill="#F7F7F7"/>
</svg>
