<svg width="24" height="20" viewBox="0 0 24 20" fill="none" xmlns="http://www.w3.org/2000/svg">
<path d="M6.3325 5.5C5.94983 3.77468 5.87331 3.25425 6.33251 2.84018C6.9065 2.32258 14.5598 1.11485 15.1338 1.63245C15.6491 2.09711 16.1187 3.55674 16.2818 4.78301C19.1978 3.81007 19.8906 3.53295 21.8304 2.0225" stroke="black" stroke-width="2" stroke-linecap="round" stroke-linejoin="round"/>
<path d="M22.8109 11.7768C23.0802 14.3156 23.1028 16.7671 22.6077 17.3191C21.5286 18.5222 4.00795 18.7583 2.8654 17.7271C1.21505 16.524 2.06079 7.54283 2.37816 6.51162C2.69554 5.4804 11.1073 5.40315 11.523 5.95738C12.4465 7.18866 12.1237 8.61396 12.6315 8.72854C13.1393 8.84312 12.6315 6.92729 13.1857 5.95738C13.6137 5.20847 20.3907 4.98747 21.2731 5.40315C21.8325 5.66665 22.4933 8.78242 22.8109 11.7768ZM22.8109 11.7768C18.5402 12.1463 9.47234 12.9961 7.36626 13.4395" stroke="black" stroke-width="2" stroke-linecap="round" stroke-linejoin="round"/>
<path d="M5 9.5L9 9" stroke="black" stroke-width="2" stroke-linecap="round"/>
<path d="M16 9C17.2932 9 19.0024 9 20 9" stroke="black" stroke-width="2" stroke-linecap="round"/>
</svg>
