<svg width="103" height="35" viewBox="0 0 103 35" fill="none" xmlns="http://www.w3.org/2000/svg">
<path d="M18.424 28.808C18.424 25.388 15.868 23.552 10.072 23.552C7.228 23.552 6.724 23.12 6.724 22.472C6.724 21.284 9.172 21.248 11.584 20.42C14.536 19.412 16.084 17.756 16.084 14.876C16.084 13.472 15.58 12.14 14.716 11.096H17.164V7.748L11.98 9.152C11.116 8.828 10.216 8.648 9.208 8.648C5.14 8.648 2.152 10.628 2.152 14.696C2.152 17.72 4.456 19.628 6.58 20.132V20.276C4.816 20.564 2.764 21.284 2.764 23.156C2.764 24.452 3.448 25.496 4.852 26.144C3.16 26.468 0.568 27.692 0.568 29.924C0.568 32.732 3.34 34.928 8.704 34.928C15.076 34.928 18.424 32.552 18.424 28.808ZM9.1 18.044C7.192 18.044 5.716 16.64 5.716 14.804C5.716 12.932 7.192 11.492 9.1 11.492C11.044 11.492 12.52 12.932 12.52 14.804C12.52 16.64 11.044 18.044 9.1 18.044ZM4.564 29.42C4.564 28.196 5.86 26.9 9.388 26.9C13.708 26.9 14.896 28.196 14.896 29.456C14.896 30.788 12.808 31.904 9.316 31.904C5.824 31.904 4.564 30.68 4.564 29.42ZM21.2163 9.152H17.5802L24.7803 26.324H25.2843L29.7483 16.316L34.1763 26.324H34.6443L41.8443 9.152H38.2443L34.2843 19.232L30.1083 9.152H29.3883L25.1763 19.196L21.2163 9.152ZM44.7099 0.727999C43.4499 0.727999 42.4059 1.772 42.4059 3.068C42.4059 4.364 43.4499 5.372 44.7099 5.372C46.0419 5.372 47.0499 4.364 47.0499 3.068C47.0499 1.772 46.0419 0.727999 44.7099 0.727999ZM42.9819 9.152V26H46.4379V9.152H42.9819ZM49.9077 1.052V26H53.3637V1.052H49.9077ZM64.7895 26.504C67.8135 26.504 69.4695 25.28 70.3695 24.56V20.996C69.0735 22.22 67.0935 23.264 65.1855 23.264C62.5215 23.264 59.4255 21.788 59.4255 17.648C59.4255 13.796 61.6575 11.78 64.7895 11.78C66.6975 11.78 68.3175 12.32 70.1175 13.832V10.124C68.7135 9.26 67.0575 8.648 64.9695 8.648C59.4255 8.648 55.8615 12.356 55.8615 17.792C55.8615 23.084 59.8935 26.504 64.7895 26.504ZM80.9973 26.504C86.1453 26.504 90.1413 22.58 90.1413 17.468C90.1413 12.5 86.1453 8.648 80.9973 8.648C75.9573 8.648 72.0333 12.5 72.0333 17.468C72.0333 22.58 75.9573 26.504 80.9973 26.504ZM75.8493 17.468C75.8493 13.94 78.1533 11.816 81.1413 11.816C84.0573 11.816 86.3253 13.94 86.3253 17.468C86.3253 21.104 84.0573 23.336 81.1413 23.336C78.1533 23.336 75.8493 21.104 75.8493 17.468ZM99.9665 11.168L98.7065 8.18L101.875 8.792L102.307 6.884L99.1745 6.02L101.623 3.896L100.435 2.384L97.8065 4.292L97.6625 1.052H95.7185L95.5745 4.292L92.9465 2.384L91.7585 3.896L94.2065 6.02L91.0745 6.884L91.5065 8.792L94.6745 8.18L93.4145 11.168L95.1785 11.996L96.6905 9.152L98.2025 11.996L99.9665 11.168Z" fill="#C4C4C4"/>
</svg>
