<svg width="64" height="94" viewBox="0 0 64 94" fill="none" xmlns="http://www.w3.org/2000/svg">
<mask id="path-1-inside-1" fill="white">
<path fill-rule="evenodd" clip-rule="evenodd" d="M22.2632 0C34.2272 0 43.9871 9.43723 44.5047 21.2737H44.5263V22.2501L44.5263 22.2632L44.5263 22.2763V32H54C59.5229 32 64 38.7157 64 47C64 55.2843 59.5229 62 54 62H44.5263V71.2421H44.5209C44.5245 71.4066 44.5263 71.5715 44.5263 71.7368C44.5263 84.0324 34.5588 94 22.2632 94C9.96756 94 0 84.0324 0 71.7368C0 61.8594 6.43243 53.4844 15.3368 50.5722C24.2413 47.66 24.2413 46.34 15.3368 43.4278C6.43243 40.5156 2.53471e-06 32.1406 2.53471e-06 22.2632C2.53471e-06 9.96756 9.96756 0 22.2632 0ZM22.0158 30.1789C26.7974 30.1789 30.6737 26.3027 30.6737 21.5211C30.6737 16.7394 26.7974 12.8632 22.0158 12.8632C17.2342 12.8632 13.3579 16.7394 13.3579 21.5211C13.3579 26.3027 17.2342 30.1789 22.0158 30.1789ZM30.6737 71.9842C30.6737 76.7658 26.7974 80.6421 22.0158 80.6421C17.2342 80.6421 13.3579 76.7658 13.3579 71.9842C13.3579 67.2026 17.2342 63.3263 22.0158 63.3263C26.7974 63.3263 30.6737 67.2026 30.6737 71.9842Z"/>
</mask>
<path d="M44.5047 21.2737L40.5085 21.4485L40.6758 25.2737H44.5047V21.2737ZM44.5263 21.2737H48.5263V17.2737H44.5263V21.2737ZM44.5263 22.2501L40.5263 22.2501L40.5263 22.2512L44.5263 22.2501ZM44.5263 22.2632L48.5263 22.2643L48.5263 22.262L44.5263 22.2632ZM44.5263 22.2763L40.5263 22.2751V22.2763H44.5263ZM44.5263 32H40.5263V36H44.5263V32ZM44.5263 62V58H40.5263V62H44.5263ZM44.5263 71.2421V75.2421H48.5263V71.2421H44.5263ZM44.5209 71.2421V67.2421H40.4328L40.5219 71.3293L44.5209 71.2421ZM15.3368 50.5722L14.0934 46.7704L14.0934 46.7704L15.3368 50.5722ZM48.5009 21.0989C47.8901 7.13277 36.3778 -4 22.2632 -4V4C32.0766 4 40.084 11.7417 40.5085 21.4485L48.5009 21.0989ZM44.5263 17.2737H44.5047V25.2737H44.5263V17.2737ZM48.5263 22.2501V21.2737H40.5263V22.2501H48.5263ZM48.5263 22.262L48.5263 22.2489L40.5263 22.2512L40.5263 22.2643L48.5263 22.262ZM48.5263 22.2774L48.5263 22.2643L40.5263 22.262L40.5263 22.2751L48.5263 22.2774ZM48.5263 32V22.2763H40.5263V32H48.5263ZM54 28H44.5263V36H54V28ZM68 47C68 42.1783 66.7043 37.6322 64.3993 34.1746C62.1129 30.745 58.515 28 54 28V36C55.0079 36 56.41 36.6129 57.7429 38.6122C59.0571 40.5836 60 43.5374 60 47H68ZM54 66C58.515 66 62.1129 63.255 64.3993 59.8254C66.7043 56.3678 68 51.8217 68 47H60C60 50.4626 59.0571 53.4164 57.7429 55.3878C56.41 57.3871 55.0079 58 54 58V66ZM44.5263 66H54V58H44.5263V66ZM48.5263 71.2421V62H40.5263V71.2421H48.5263ZM44.5209 75.2421H44.5263V67.2421H44.5209V75.2421ZM48.5263 71.7368C48.5263 71.5424 48.5242 71.3484 48.52 71.1549L40.5219 71.3293C40.5248 71.4647 40.5263 71.6006 40.5263 71.7368H48.5263ZM22.2632 98C36.7679 98 48.5263 86.2416 48.5263 71.7368H40.5263C40.5263 81.8233 32.3496 90 22.2632 90V98ZM-4 71.7368C-4 86.2416 7.75842 98 22.2632 98V90C12.1767 90 4 81.8233 4 71.7368H-4ZM14.0934 46.7704C3.59341 50.2044 -4 60.0786 -4 71.7368H4C4 63.6402 9.27145 56.7644 16.5802 54.374L14.0934 46.7704ZM14.0934 47.2296C15.1692 47.5815 16.0747 47.8977 16.825 48.1857C17.5841 48.4772 18.1274 48.7182 18.5002 48.9121C18.683 49.0071 18.7957 49.0759 18.8559 49.116C18.9202 49.1589 18.889 49.1456 18.8084 49.0672C18.7309 48.9918 18.5425 48.7932 18.3662 48.456C18.2753 48.2823 18.1862 48.0687 18.1202 47.8175C18.0537 47.5641 18.0151 47.289 18.0151 47C18.0151 46.711 18.0537 46.4359 18.1202 46.1825C18.1862 45.9313 18.2753 45.7177 18.3662 45.544C18.5425 45.2068 18.7309 45.0082 18.8084 44.9328C18.889 44.8544 18.9202 44.8411 18.8559 44.884C18.7957 44.9241 18.683 44.9929 18.5002 45.0879C18.1274 45.2818 17.5841 45.5228 16.825 45.8143C16.0747 46.1023 15.1692 46.4185 14.0934 46.7704L16.5802 54.374C18.8244 53.6401 20.7645 52.9275 22.191 52.1857C22.8934 51.8204 23.7036 51.3317 24.3871 50.6667C25.0652 50.007 26.0151 48.7737 26.0151 47C26.0151 45.2263 25.0652 43.993 24.3871 43.3333C23.7036 42.6683 22.8934 42.1796 22.191 41.8143C20.7645 41.0725 18.8244 40.3599 16.5802 39.626L14.0934 47.2296ZM-4 22.2632C-4 33.9214 3.59341 43.7956 14.0934 47.2296L16.5802 39.626C9.27145 37.2356 4 30.3598 4 22.2632H-4ZM22.2632 -4C7.75842 -4 -4 7.75842 -4 22.2632H4C4 12.1767 12.1767 4 22.2632 4V-4ZM26.6737 21.5211C26.6737 24.0935 24.5883 26.1789 22.0158 26.1789V34.1789C29.0066 34.1789 34.6737 28.5118 34.6737 21.5211H26.6737ZM22.0158 16.8632C24.5883 16.8632 26.6737 18.9486 26.6737 21.5211H34.6737C34.6737 14.5303 29.0066 8.86316 22.0158 8.86316V16.8632ZM17.3579 21.5211C17.3579 18.9486 19.4433 16.8632 22.0158 16.8632V8.86316C15.025 8.86316 9.35789 14.5303 9.35789 21.5211H17.3579ZM22.0158 26.1789C19.4433 26.1789 17.3579 24.0935 17.3579 21.5211H9.35789C9.35789 28.5118 15.025 34.1789 22.0158 34.1789V26.1789ZM22.0158 84.6421C29.0065 84.6421 34.6737 78.975 34.6737 71.9842H26.6737C26.6737 74.5567 24.5883 76.6421 22.0158 76.6421V84.6421ZM9.35789 71.9842C9.35789 78.975 15.025 84.6421 22.0158 84.6421V76.6421C19.4433 76.6421 17.3579 74.5567 17.3579 71.9842H9.35789ZM22.0158 59.3263C15.025 59.3263 9.35789 64.9935 9.35789 71.9842H17.3579C17.3579 69.4117 19.4433 67.3263 22.0158 67.3263V59.3263ZM34.6737 71.9842C34.6737 64.9935 29.0066 59.3263 22.0158 59.3263V67.3263C24.5883 67.3263 26.6737 69.4117 26.6737 71.9842H34.6737Z" fill="black" mask="url(#path-1-inside-1)"/>
</svg>
