<svg width="16" height="23" viewBox="0 0 16 23" fill="none" xmlns="http://www.w3.org/2000/svg">
<path d="M10.7354 5.65362L11.7352 5.6318L11.7349 5.62086L11.7345 5.60993L10.7354 5.65362ZM10.7401 5.87007L11.7401 5.8704L11.7401 5.85932L11.7399 5.84824L10.7401 5.87007ZM10.7401 5.87293L9.74013 5.8726V5.87293H10.7401ZM10.7401 8H9.74013V9H10.7401V8ZM10.7401 14.5625V13.5625H9.74013V14.5625H10.7401ZM10.7401 16.5842V17.5842H11.7401V16.5842H10.7401ZM10.739 16.5842V15.5842H9.71693L9.73919 16.606L10.739 16.5842ZM4.35493 12.0627L4.04408 11.1122L4.04408 11.1122L4.35493 12.0627ZM4.35493 10.4998L4.04408 11.4503L4.04408 11.4503L4.35493 10.4998ZM11.7345 5.60993C11.5979 2.48828 9.02485 0 5.87007 0V2C7.94955 2 9.64641 3.64051 9.73636 5.69731L11.7345 5.60993ZM11.7399 5.84824L11.7352 5.6318L9.73565 5.67544L9.74037 5.89189L11.7399 5.84824ZM11.7401 5.87327L11.7401 5.8704L9.74013 5.86973L9.74013 5.8726L11.7401 5.87327ZM11.7401 8V5.87293H9.74013V8H11.7401ZM12.8125 7H10.7401V9H12.8125V7ZM16 11.2812C16 10.2053 15.7111 9.18592 15.1913 8.40636C14.6763 7.63378 13.8549 7 12.8125 7V9C12.9782 9 13.2506 9.10075 13.5272 9.51576C13.7993 9.92377 14 10.545 14 11.2812H16ZM12.8125 15.5625C13.8549 15.5625 14.6763 14.9287 15.1913 14.1561C15.7111 13.3766 16 12.3572 16 11.2812H14C14 12.0175 13.7993 12.6387 13.5272 13.0467C13.2506 13.4617 12.9782 13.5625 12.8125 13.5625V15.5625ZM10.7401 15.5625H12.8125V13.5625H10.7401V15.5625ZM11.7401 16.5842V14.5625H9.74013V16.5842H11.7401ZM10.739 17.5842H10.7401V15.5842H10.739V17.5842ZM11.7401 16.6924C11.7401 16.649 11.7397 16.6057 11.7387 16.5624L9.73919 16.606C9.73982 16.6347 9.74013 16.6635 9.74013 16.6924H11.7401ZM5.87007 22.5625C9.11201 22.5625 11.7401 19.9344 11.7401 16.6924H9.74013C9.74013 18.8298 8.00744 20.5625 5.87007 20.5625V22.5625ZM0 16.6924C0 19.9344 2.62812 22.5625 5.87007 22.5625V20.5625C3.73269 20.5625 2 18.8298 2 16.6924H0ZM4.04408 11.1122C1.69734 11.8797 0 14.0866 0 16.6924H2C2 14.9769 3.11685 13.5197 4.66578 13.0131L4.04408 11.1122ZM4.04408 11.4503C4.27824 11.5269 4.47417 11.5953 4.63566 11.6573C4.79935 11.7202 4.91344 11.771 4.98925 11.8104C5.02627 11.8297 5.04683 11.8424 5.05534 11.8481C5.0649 11.8545 5.05166 11.8469 5.02717 11.823C4.98808 11.785 4.81581 11.6007 4.81581 11.2812C4.81581 10.9618 4.98808 10.7775 5.02717 10.7395C5.05166 10.7156 5.0649 10.708 5.05534 10.7144C5.04683 10.7201 5.02627 10.7328 4.98925 10.7521C4.91344 10.7915 4.79935 10.8423 4.63566 10.9052C4.47417 10.9672 4.27824 11.0356 4.04408 11.1122L4.66578 13.0131C5.15726 12.8524 5.5901 12.6939 5.91194 12.5265C6.07016 12.4443 6.25968 12.3307 6.42185 12.1729C6.58268 12.0165 6.81581 11.7164 6.81581 11.2812C6.81581 10.8461 6.58268 10.546 6.42185 10.3896C6.25968 10.2318 6.07016 10.1182 5.91194 10.036C5.5901 9.86862 5.15726 9.71011 4.66578 9.54937L4.04408 11.4503ZM0 5.87007C0 8.47595 1.69734 10.6828 4.04408 11.4503L4.66578 9.54937C3.11685 9.04279 2 7.58555 2 5.87007H0ZM5.87007 0C2.62812 0 0 2.62812 0 5.87007H2C2 3.73269 3.73269 2 5.87007 2V0ZM6.70987 5.70773C6.70987 6.20143 6.30965 6.60165 5.81595 6.60165V8.60165C7.41422 8.60165 8.70987 7.306 8.70987 5.70773H6.70987ZM5.81595 4.81382C6.30965 4.81382 6.70987 5.21404 6.70987 5.70773H8.70987C8.70987 4.10947 7.41422 2.81382 5.81595 2.81382V4.81382ZM4.92204 5.70773C4.92204 5.21404 5.32226 4.81382 5.81595 4.81382V2.81382C4.21769 2.81382 2.92204 4.10947 2.92204 5.70773H4.92204ZM5.81595 6.60165C5.32226 6.60165 4.92204 6.20143 4.92204 5.70773H2.92204C2.92204 7.306 4.21769 8.60165 5.81595 8.60165V6.60165ZM5.81595 19.6405C7.41422 19.6405 8.70987 18.3448 8.70987 16.7466H6.70987C6.70987 17.2402 6.30965 17.6405 5.81595 17.6405V19.6405ZM2.92204 16.7466C2.92204 18.3448 4.21769 19.6405 5.81595 19.6405V17.6405C5.32226 17.6405 4.92204 17.2402 4.92204 16.7466H2.92204ZM5.81595 13.8526C4.21769 13.8526 2.92204 15.1483 2.92204 16.7466H4.92204C4.92204 16.2529 5.32226 15.8526 5.81595 15.8526V13.8526ZM8.70987 16.7466C8.70987 15.1483 7.41422 13.8526 5.81595 13.8526V15.8526C6.30965 15.8526 6.70987 16.2529 6.70987 16.7466H8.70987ZM10.7401 4.65362H10.7354V6.65362H10.7401V4.65362Z" fill="black"/>
</svg>
