<svg width="28" height="16" viewBox="0 0 28 16" fill="none" xmlns="http://www.w3.org/2000/svg">
<path d="M9 15V11M9 15H19M9 15H5M9 11H11M9 11H7M19 11V15M19 11H23M19 11V6M19 11H15M19 15H23M1 11V15H5M1 11H5M1 11V6M27 11V15H23M27 11H23M27 11V6M23 11V15M23 11V6M5 11V15M5 11H7M1 6V1H5M1 6H5M27 6V1H24.0455H21M27 6H23M5 1V6M5 1H9M5 6H7M9 6V1M9 6H11M9 6H7M9 1H13M13 6V1M13 6H15M13 6H11M13 1H17M17 6V1M17 6H19M17 6H15M17 1H21M21 1V6M21 6H23M21 6H19M15 6V11M15 11H11M11 11V6M7 6V11" stroke="black" stroke-width="2" stroke-linejoin="round"/>
</svg>
