<svg width="32" height="21" viewBox="0 0 32 21" fill="none" xmlns="http://www.w3.org/2000/svg">
<path d="M16.0747 4.13092C22.2916 3.87001 31.2535 3.13588 30.9945 6.5277C30.7355 9.91951 24.13 8.61498 18.8198 8.74543C19.8209 10.2219 20.6917 12.9032 17.7837 13.7219M12.3976 7.95179C9.17286 7.78084 8.30429 10.365 10.2716 12.1965M17.7837 13.7219C17.1802 13.8919 16.4139 13.9815 15.4523 13.9636C13.0409 13.9186 11.3069 13.1603 10.2716 12.1965M17.7837 13.7219C17.9912 14.6588 17.8932 16.0928 16.7475 16.9295M10.2716 12.1965C8.71739 12.3862 6.90414 16.5727 12.862 17.4859C14.764 17.7774 15.9867 17.4851 16.7475 16.9295M16.7475 16.9295C16.8462 18.6453 13.8632 20.7952 10.8332 19.7036M8.0698 17.6163C8.93366 18.704 9.8857 19.3623 10.8332 19.7036M10.8332 19.7036C9.37015 19.9092 3.26264 19.424 1.65754 15.8839C1.22558 14.9312 1.13948 13.3341 1.13948 12.1965C0.232847 5.41284 3.92522 2.61406 7.03365 1.57043C10.1421 0.526793 15.1933 0.526793 16.359 4.96224C17.5246 9.39769 12.4734 10.5718 11.1782 5.61452" stroke="black" stroke-width="2" stroke-linecap="round" stroke-linejoin="round"/>
</svg>
