<svg width="127" height="161" viewBox="0 0 127 161" fill="none" xmlns="http://www.w3.org/2000/svg">
<circle cx="64" cy="90" r="47" fill="#FFFCBE" stroke="black" stroke-width="4"/>
<path d="M15.0465 84.1811L15.0547 84.0907V84C15.0547 56.938 36.9928 35 64.0547 35C91.1167 35 113.055 56.938 113.055 84C113.055 88.6123 112.313 91.626 111.085 93.4428C109.964 95.1014 108.276 96 105.555 96C104.627 96 103.979 95.7899 103.496 95.4958C103.003 95.196 102.569 94.7393 102.182 94.0848C101.37 92.7087 100.917 90.7286 100.568 88.3916C100.476 87.7769 100.39 87.1237 100.303 86.4589C100.085 84.797 99.857 83.0631 99.4997 81.6796C99.2424 80.6832 98.8662 79.6278 98.2289 78.7685C97.5404 77.8403 96.5315 77.131 95.1811 77.0082C93.8133 76.8839 92.683 77.4214 91.842 78.2386C91.0644 78.9944 90.517 79.9968 90.1 80.9703C89.4183 82.5619 88.8742 84.6148 88.3557 86.5713C88.2465 86.9832 88.1385 87.3909 88.0305 87.7892C87.3728 90.215 86.6982 92.3877 85.78 93.9452C84.8883 95.4575 84.016 96 83 96C80.8849 96 80.0799 95.4423 79.6497 94.9653C79.1498 94.4109 78.8899 93.7262 78.4723 92.6262C78.3943 92.4208 78.3109 92.201 78.2193 91.9647C77.7017 90.6293 76.9241 88.8578 75.0733 87.6688C73.2379 86.4898 70.728 86.1143 67.2708 86.5132C65.3727 86.7322 63.7838 87.3049 62.4837 88.2199C61.1825 89.1356 60.2757 90.3202 59.633 91.6056C58.4329 94.0057 58.0838 96.9457 57.7889 99.4292C57.7806 99.4994 57.7723 99.5692 57.764 99.6386C57.4385 102.373 57.1478 104.552 56.3123 106.124C55.9267 106.849 55.4498 107.384 54.8258 107.764C54.194 108.148 53.2852 108.449 51.9231 108.501C49.631 108.59 47.9739 107.444 46.5764 105.148C45.1265 102.765 44.1568 99.4249 43.3547 95.8161C43.0746 94.5556 42.8108 93.2359 42.5507 91.9347C42.1024 89.6922 41.6651 87.5043 41.1737 85.7679C40.7804 84.3781 40.2872 83.0108 39.5824 81.9758C38.8505 80.9012 37.6398 79.861 35.8886 80.0069C33.5248 80.2039 31.8802 81.7757 30.7022 83.332C29.7882 84.5395 28.9405 86.0399 28.1551 87.43C27.9357 87.8184 27.7211 88.1981 27.5113 88.5604C26.4835 90.3358 25.5106 91.816 24.3916 92.8085C23.3537 93.7291 22.2469 94.1853 20.7884 94.0137C18.263 93.7166 16.8199 92.2372 15.9625 90.2743C15.0663 88.2229 14.9011 85.7805 15.0465 84.1811Z" fill="black" stroke="black" stroke-width="4"/>
<path d="M67.1943 159L12.4311 128.63C12.4311 128.63 8.51943 123.069 5.91166 114.514C3.30389 105.96 2 96.9769 2 96.9769L67.1943 128.63L125 96.9769C125 96.9769 125 106.529 123 114.514C121 122.5 115 130.769 115 130.769L67.1943 159Z" fill="#EFBBD1"/>
<path d="M2 96.9769L67.1943 128.63M2 96.9769L22.4276 85M2 96.9769C2 96.9769 3.30389 105.96 5.91166 114.514C8.51943 123.069 12.4311 128.63 12.4311 128.63L67.1943 159M67.1943 159V128.63M67.1943 159L115 130.769C115 130.769 121 122.5 123 114.514C125 106.529 125 96.9769 125 96.9769M67.1943 128.63L125 96.9769M125 96.9769L104.572 85" stroke="black" stroke-width="4" stroke-linejoin="round"/>
<path d="M23.0384 3.1751C20.0383 2.1751 15.5384 5.6751 16.0384 8.1751C16.5384 10.6751 28.7384 29.4751 29.5384 30.6751C30.5384 32.1751 29.0384 34.1751 28.0384 38.6751C27.2384 42.2751 33.8717 51.0084 37.0384 52.6751L40.5382 50.1751C38.7049 47.1751 34.951 42.549 36.5 41C37.3 40.2 40.705 46.1751 42.5384 49.1751L47.0382 46.6751C45.7049 44.0084 41.3384 38.0751 42.5384 37.6751C43.7384 37.2751 47.0384 42.6751 48.0384 45.1751L52.0384 42.1751C50.5384 39.5084 48.0384 31.6751 46.0384 29.6751C43.0384 26.6751 39.0384 28.1751 37.0384 27.1751C35.4384 26.3751 26.0384 4.1751 23.0384 3.1751Z" fill="#EFBBD1" stroke="black" stroke-width="4" stroke-linejoin="round"/>
<path d="M71.0013 103.265L83.477 87.9154" stroke="black" stroke-width="4" stroke-linecap="round"/>
<path d="M72.4311 110.062L84.9068 94.7129" stroke="black" stroke-width="4" stroke-linecap="round"/>
<path d="M81.2842 108.789L93.7599 93.4391" stroke="black" stroke-width="4" stroke-linecap="round"/>
<path d="M95.7259 46.4684C94.5009 51.3083 84.2973 49.9961 80.0115 49.2905C75.7258 48.585 64.4035 45.3493 62.2606 38.9994C61.4158 37.3532 62.4449 31.3699 68.0302 30.241C68.9435 28.0057 70.3463 25.4624 74.2975 25.7293C73.1546 18.6781 86.4404 14.0137 87.1547 16.8358C87.1547 18.2469 85.7261 19.658 85.7261 21.069C85.7261 23.8912 88.0432 23.7725 91.0148 25.7293C93.1577 27.1404 94.2975 29.5355 92.869 30.9466C95.267 32.0819 97.4404 36.847 92.869 40C93.6293 41.1554 96.4402 43.6462 95.7259 46.4684Z" fill="white"/>
<path d="M95.7259 46.4684L97.6647 46.9591V46.9591L95.7259 46.4684ZM69.5 35.5L71.1116 34.3156L69.5 35.5ZM91.0148 25.7293L92.1148 24.059L91.0148 25.7293ZM87.1547 16.8358H89.1547C89.1547 16.6703 89.1341 16.5055 89.0935 16.3451L87.1547 16.8358ZM74.2975 25.7293L74.1627 27.7248H74.1627L74.2975 25.7293ZM80.0118 28.83L80.849 27.0136L80.0118 28.83ZM62.2606 38.9994L64.1556 38.3599L64.108 38.2188L64.04 38.0863L62.2606 38.9994ZM68.0302 30.241L69.8816 30.9975V30.9975L68.0302 30.241ZM92.869 30.9466L91.4635 29.5237L91.4635 29.5237L92.869 30.9466ZM92.869 40L91.1982 41.0994V41.0994L92.869 40ZM79.6867 51.264C81.8499 51.6201 85.6575 52.1581 89.1328 51.9556C90.8618 51.8549 92.6681 51.564 94.1878 50.8694C95.7492 50.1557 97.166 48.9298 97.6647 46.9591L93.787 45.9776C93.6733 46.427 93.3552 46.852 92.525 47.2314C91.6531 47.6299 90.4109 47.8744 88.9002 47.9624C85.896 48.1374 82.4589 47.6665 80.3364 47.3171L79.6867 51.264ZM82 36C78.0022 36 75.645 36.085 73.9295 35.8439C73.1312 35.7317 72.6122 35.562 72.2238 35.3479C71.8507 35.1422 71.497 34.84 71.1116 34.3156L67.8884 36.6844C68.5559 37.5926 69.3283 38.3192 70.2928 38.8509C71.242 39.3741 72.2722 39.6503 73.3729 39.805C75.4554 40.0976 78.2953 40 82 40V36ZM92.1148 24.059C91.2645 23.4991 90.4721 23.0954 89.8079 22.7731C89.0946 22.427 88.6585 22.2316 88.2815 22.0065C87.9417 21.8037 87.8532 21.6883 87.8242 21.6425C87.8083 21.6174 87.7261 21.4897 87.7261 21.069H83.7261C83.7261 22.0594 83.9335 22.9752 84.4449 23.7827C84.9433 24.5696 85.6197 25.076 86.2308 25.4409C86.8045 25.7834 87.5048 26.1017 88.0618 26.3719C88.6678 26.6659 89.2794 26.9812 89.9149 27.3997L92.1148 24.059ZM87.7261 21.069C87.7261 20.934 87.8078 20.6793 88.2248 19.8557C88.5221 19.2683 89.1547 18.1119 89.1547 16.8358H85.1547C85.1547 16.9708 85.0729 17.2255 84.656 18.0491C84.3586 18.6366 83.7261 19.793 83.7261 21.069H87.7261ZM74.1627 27.7248C74.1617 27.7247 74.2869 27.7377 74.6001 27.894C74.9053 28.0463 75.2658 28.2704 75.7331 28.5797C76.6008 29.154 77.8232 30.0234 79.1746 30.6463L80.849 27.0136C79.8532 26.5546 78.9685 25.9244 77.9408 25.2442C77.4604 24.9262 76.9262 24.5844 76.3861 24.3148C75.854 24.0493 75.1833 23.7846 74.4323 23.7339L74.1627 27.7248ZM89.0935 16.3451C88.7703 15.0679 87.7475 14.4495 86.9247 14.2028C86.13 13.9644 85.2529 13.9659 84.4583 14.056C82.8354 14.24 80.9078 14.8717 79.1089 15.8046C77.3072 16.739 75.4774 18.0568 74.1556 19.7269C72.818 21.4169 71.9234 23.5823 72.3232 26.0493L76.2717 25.4094C76.1001 24.3507 76.4377 23.2889 77.2921 22.2093C78.1622 21.1099 79.4842 20.1159 80.9504 19.3555C82.4193 18.5937 83.8757 18.1477 84.909 18.0305C85.4425 17.97 85.7117 18.015 85.7758 18.0342C85.8119 18.045 85.3605 17.8982 85.2158 17.3266L89.0935 16.3451ZM60.3656 39.6389C61.7199 43.6518 65.7826 46.3505 69.4888 48.0749C73.3157 49.8554 77.3974 50.8871 79.6867 51.264L80.3364 47.3171C78.3399 46.9884 74.6177 46.0495 71.1762 44.4483C67.6141 42.791 64.9443 40.6969 64.1556 38.3599L60.3656 39.6389ZM71.1116 34.3156C70.5607 33.566 70.2134 32.7074 70.0412 31.9648C69.9556 31.596 69.9211 31.2891 69.9165 31.0728C69.911 30.8075 69.9525 30.824 69.8816 30.9975L66.1787 29.4846C65.9465 30.0529 65.9073 30.6743 65.9174 31.1566C65.9286 31.6879 66.0061 32.2714 66.1446 32.8686C66.4205 34.058 66.9695 35.434 67.8884 36.6844L71.1116 34.3156ZM69.8816 30.9975C70.3205 29.9233 70.7644 29.0837 71.3786 28.5188C71.9049 28.0347 72.6936 27.6256 74.1627 27.7248L74.4323 23.7339C71.9502 23.5662 70.0619 24.2952 68.6707 25.5748C67.3673 26.7737 66.6531 28.3234 66.1787 29.4846L69.8816 30.9975ZM64.04 38.0863C64.0747 38.154 63.9616 37.9064 64.0139 37.255C64.0604 36.675 64.2258 35.9674 64.5502 35.2638C65.1851 33.8872 66.3719 32.6166 68.4264 32.2014L67.6339 28.2807C64.1031 28.9943 61.9827 31.2798 60.9179 33.5886C60.3926 34.7278 60.11 35.8952 60.0267 36.9354C59.949 37.9041 60.0241 39.0218 60.4813 39.9126L64.04 38.0863ZM79.1746 30.6463C83.518 32.6484 86.6123 33.6405 88.9047 33.8875C91.308 34.1465 93.0309 33.5978 94.2744 32.3695L91.4635 29.5237C91.2785 29.7064 90.8584 30.0749 89.3332 29.9105C87.6971 29.7342 85.077 28.9625 80.849 27.0136L79.1746 30.6463ZM94.2744 32.3695C95.7151 30.9465 95.7193 29.0728 95.1424 27.6059C94.5854 26.1898 93.4502 24.9383 92.1148 24.059L89.9149 27.3997C90.7223 27.9314 91.2285 28.5831 91.42 29.07C91.5111 29.3017 91.5063 29.4295 91.5015 29.4648C91.5002 29.4748 91.5048 29.4828 91.4635 29.5237L94.2744 32.3695ZM97.6647 46.9591C98.2223 44.7561 97.3591 42.8338 96.5406 41.5399C96.1196 40.8745 95.6568 40.2909 95.2858 39.8365C94.8628 39.3183 94.6552 39.0761 94.5397 38.9006L91.1982 41.0994C91.4629 41.5016 91.8917 42.004 92.1873 42.3661C92.5348 42.7918 92.8727 43.2239 93.1602 43.6784C93.7586 44.6244 93.9437 45.3585 93.787 45.9776L97.6647 46.9591ZM94.5397 38.9006C93.9083 37.9412 93.1222 37.2202 92.1499 36.732C91.2088 36.2594 90.1988 36.0585 89.196 35.9695C88.2026 35.8813 87.0993 35.895 85.9438 35.9237C84.7575 35.9532 83.479 36 82 36V40C83.5449 40 84.9092 39.9507 86.0431 39.9225C87.2078 39.8936 88.1022 39.8881 88.8423 39.9538C89.5729 40.0187 90.0324 40.1447 90.355 40.3067C90.6465 40.4531 90.9185 40.6743 91.1982 41.0994L94.5397 38.9006ZM92.0131 32.7542C92.5587 33.0125 93.328 33.8903 93.5068 35.0274C93.6537 35.9611 93.4149 37.1939 91.7334 38.3536L94.0045 41.6464C96.8944 39.6532 97.8547 36.9269 97.4582 34.4059C97.0937 32.0884 95.5773 30.016 93.7248 29.1389L92.0131 32.7542Z" fill="black"/>
</svg>
