<svg width="114" height="76" viewBox="0 0 114 76" fill="none" xmlns="http://www.w3.org/2000/svg">
<path d="M92.4645 62.6946C91.4195 61.0186 89.8576 58.5934 88.2465 55.9502M88.2465 55.9502C85.4299 59.4589 88.0037 63.878 90.5578 66.1344C93.275 68.5349 98.0436 70.5156 104.257 65.857C105.381 65.2217 106.913 64.2471 107.62 63.3005C110.248 59.783 107.899 55.4723 106.419 52.3611C104.939 49.2498 102.129 47.716 100.47 48.2341C99.0218 47.6018 97.3946 48.3292 96.5811 49.0516C93.887 47.2941 92.1739 49.0304 91.2576 50.8158C88.2489 45.7922 85.5676 38.6157 82.2054 40.5155C78.751 42.4674 84.262 49.4129 88.2465 55.9502Z" stroke="#E5E5E5" stroke-width="2" stroke-linecap="round" stroke-linejoin="round"/>
<path d="M1 13V36.3333L7.67857 32.8333L11.9286 41L16.1786 38.6667L11.9286 30.5L18 27L1 13Z" stroke="#E5E5E5" stroke-width="2" stroke-linejoin="round"/>
<path d="M38.499 19.5569C37.9946 20.2223 40.8915 41.2798 41.5569 41.7843C42.2223 42.2888 48.5761 40.8186 48.5761 40.8186C48.5761 40.8186 50.4052 58.4471 51.0706 58.9515C51.736 59.456 65.7744 57.5247 66.2789 56.8593C66.7833 56.1939 61.3919 17.0035 60.7265 16.499C60.0611 15.9946 39.0035 18.8915 38.499 19.5569Z" stroke="#E5E5E5" stroke-width="2" stroke-linejoin="round"/>
<path d="M55.8428 24.3229L56.4865 29.0024L45.9578 30.4508M45.9578 30.4508L48.4801 27.1238M45.9578 30.4508L49.2848 32.9731" stroke="#E5E5E5" stroke-width="2" stroke-linecap="round" stroke-linejoin="round"/>
<path d="M23.6401 63.8291L28.8901 62.5791L34.1401 61.3291M34.1401 61.3291L29.1401 57.8291M34.1401 61.3291L31.1401 66.8291M21.1401 73.8291C19.1401 72.3291 16.3401 57.4291 17.1401 55.8291C18.1401 53.8291 33.6401 49.8291 36.1401 51.3291C38.6401 52.8291 41.6401 67.8291 40.6401 69.3291C39.6401 70.8291 23.1401 75.3291 21.1401 73.8291Z" stroke="#E5E5E5" stroke-width="2" stroke-linecap="round" stroke-linejoin="round"/>
<path d="M81.6401 13.8291L86.8901 12.5791L92.1401 11.3291M92.1401 11.3291L87.1401 7.8291M92.1401 11.3291L89.1401 16.8291M79.1401 23.8291C77.1401 22.3291 74.3401 7.42912 75.1401 5.82912C76.1401 3.82912 91.6401 -0.170877 94.1401 1.32912C96.6401 2.82912 99.6401 17.8291 98.6401 19.3291C97.6401 20.8291 81.1401 25.3291 79.1401 23.8291Z" stroke="#E5E5E5" stroke-width="2" stroke-linecap="round" stroke-linejoin="round"/>
</svg>
