<svg width="77" height="120" viewBox="0 0 77 120" fill="none" xmlns="http://www.w3.org/2000/svg">
<path d="M62.636 60.7927C63.636 84.7927 66.636 118.793 53.636 117.793C40.636 116.793 45.636 91.2927 45.136 70.7927C39.4771 74.6574 29.2003 78.0191 26.0623 66.7927M48.136 44.7927C48.7912 32.3438 38.9286 30.1979 31.909 37.7927M26.0623 66.7927C25.411 64.4629 25.0673 61.5049 25.136 57.7927C25.3084 48.4833 28.2151 41.7893 31.909 37.7927M26.0623 66.7927C22.4714 67.594 16.9754 67.2155 13.7684 62.7927M31.909 37.7927C31.182 31.7927 15.136 24.7927 11.636 47.7927C10.5187 55.1354 11.6388 59.8558 13.7684 62.7927M13.7684 62.7927C7.1923 63.1736 -1.04798 51.6577 3.13603 39.9605M11.136 29.2927C6.96742 32.6276 4.44433 36.3029 3.13603 39.9605M3.13603 39.9605C2.34808 34.3127 4.20779 10.7348 17.7759 4.53842C21.4274 2.87085 27.5489 2.53845 31.909 2.53845C57.909 -0.961555 68.636 13.2927 72.636 25.2927C76.636 37.2927 76.636 56.7927 59.636 61.2927C42.636 65.7927 38.136 46.2927 57.136 41.2927" stroke="black" stroke-width="4" stroke-linecap="round" stroke-linejoin="round"/>
</svg>
