<svg width="142" height="112" viewBox="0 0 142 112" fill="none" xmlns="http://www.w3.org/2000/svg">
<path d="M3.44202 53.2324C-3.07992 38.9447 13.8768 32.2772 27.1575 22.2758C43.7583 9.77403 49.2105 1.03964 56.8018 2.50001C62 3.50001 68.1939 4.95148 69.9726 11.5C71.7512 18.0485 62 28.5 71.6238 30.6103C72.2671 30.7513 72.8809 30.8804 73.6986 30.6103C77.1779 29.4609 82.9153 24.6837 90.5963 32.3962C91.8662 33.6713 92.6177 34.9495 93 36.2147C94.6009 41.5129 89.7277 46.5844 89.3384 50.2559C89.2177 51.3943 89.5281 52.3982 90.5963 53.2324C92.3452 54.5982 93.86 54.2026 95.3918 53.2324C98.5338 51.2425 101.747 46.8357 107.197 50.2559C116.329 55.9866 107.984 74.077 110.193 71.4067C110.295 71.2702 110.398 71.1346 110.5 71C113.454 66.8337 123.15 61.3066 124.984 69.9014C126.762 78.2359 111.854 92.362 129.134 99.6675C151.664 109.193 129.604 111.449 122.019 109.193C106.011 104.43 114.443 90.4532 107.197 84.5C104.776 82.5111 100.941 86.2301 97.712 89.5944C96.912 90.5597 96.1372 91.3778 95.3918 92C91.8918 95.5 85.7049 99.9404 81.5 96.5C77.4682 93.2013 84.9707 87.2185 85.1415 81.5C85.2037 79.4175 84.2936 77.37 81.5 75.5C77.2225 72.6367 73.222 75.1012 69.9726 78.2359C65.115 82.9222 61.0648 89.8989 56.8018 85.9751C52.9411 82.4216 58.4037 75.8591 59.818 69.9014C60.5577 66.7855 60.19 63.835 56.8018 61.5669C52.6048 58.7574 43.5 60.5 39 64.5C35 68.5 32.9545 75.0987 27.1575 71C21.5 67 30.1892 60.7626 26.5 56C24.1815 53.007 19.5 58.5418 15.5 60C10.5631 61.7998 7.36727 59.276 3.44202 53.2324Z" fill="#FFFCBE"/>
<path d="M110.5 71C107.309 75.5 116.683 56.2091 107.197 50.2559C101.747 46.8357 98.5338 51.2425 95.3918 53.2324M110.5 71C113.454 66.8337 123.15 61.3066 124.984 69.9014C126.762 78.2359 111.854 92.362 129.134 99.6675C151.664 109.193 129.604 111.449 122.019 109.193C106.011 104.43 114.443 90.4532 107.197 84.5C104.158 82.0035 98.8918 88.5 95.3918 92M110.5 71C105 78.2359 99.7052 88.4 95.3918 92M95.3918 92C91.8918 95.5 85.7049 99.9404 81.5 96.5C77.4682 93.2013 84.9707 87.2185 85.1415 81.5M69.9726 78.2359C73.222 75.1012 77.2225 72.6367 81.5 75.5C84.2936 77.37 85.2037 79.4175 85.1415 81.5M69.9726 78.2359C65.115 82.9222 61.0648 89.8989 56.8018 85.9751C52.9411 82.4216 58.4037 75.8591 59.818 69.9014M69.9726 78.2359C74.8009 73.1402 78.4736 69.2727 81.5 66.1604M95.3918 53.2324C93.86 54.2026 92.3452 54.5982 90.5963 53.2324C89.5281 52.3982 89.2177 51.3943 89.3384 50.2559M95.3918 53.2324C90.7407 56.9907 87.3126 60.1827 81.5 66.1604M39 64.5C43.5 60.5 52.6048 58.7574 56.8018 61.5669C60.19 63.835 60.5577 66.7855 59.818 69.9014M39 64.5C35 68.5 32.9545 75.0987 27.1575 71C21.5 67 30.1892 60.7626 26.5 56C24.1815 53.007 19.5 58.5418 15.5 60C10.5631 61.7998 7.36727 59.276 3.44202 53.2324C-3.07992 38.9447 13.8768 32.2772 27.1575 22.2758C43.7583 9.77403 49.2105 1.03964 56.8018 2.50001C62 3.50001 68.1939 4.95148 69.9726 11.5C71.7512 18.0485 62 28.5 71.6238 30.6103C72.2671 30.7513 72.8809 30.8804 73.6986 30.6103M39 64.5C44.2264 58.5528 48.2835 54.0996 52.0235 50.2559M73.6986 30.6103C77.1779 29.4609 82.9153 24.6837 90.5963 32.3962C91.8662 33.6713 92.6177 34.9495 93 36.2147M73.6986 30.6103C64.2979 38.5343 58.6599 43.4356 52.0235 50.2559M93 36.2147C88 32.3962 78 34.5 78 41.5C78 49 85.1415 52 89.3384 50.2559M93 36.2147C94.6009 41.5129 89.7277 46.5844 89.3384 50.2559M81.5 66.1604C85.5945 64.7736 92.8385 64.5 94 71C95.1615 77.5 91.283 82.5 85.1415 81.5M52.0235 50.2559C54.7557 47.5 66.6 49.3717 67 57.5C67.3445 64.5 62.8341 68.8029 59.818 69.9014" stroke="black" stroke-width="4" stroke-linecap="round"/>
<path d="M69.9725 78.2359C73.2219 75.1012 77.2225 72.6367 81.5 75.5C84.2935 77.37 85.2037 79.4175 85.1415 81.5C91.283 82.5 95.1614 77.5 94 71C92.8385 64.5 85.5945 64.7736 81.5 66.1604C78.4736 69.2727 74.8008 73.1402 69.9725 78.2359Z" fill="#EFBBD1"/>
<path d="M78 41.5C78 34.5 88 32.3962 93 36.2147C94.6009 41.5129 89.7277 46.5844 89.3384 50.2559C85.1415 52 78 49 78 41.5Z" fill="#EFBBD1"/>
<path d="M69.9725 78.2359C73.2219 75.1012 77.2225 72.6367 81.5 75.5C84.2935 77.37 85.2037 79.4175 85.1415 81.5C91.283 82.5 95.1614 77.5 94 71C92.8385 64.5 85.5945 64.7736 81.5 66.1604C78.4736 69.2727 74.8008 73.1402 69.9725 78.2359Z" stroke="black" stroke-width="4" stroke-linecap="round"/>
<path d="M78 41.5C78 34.5 88 32.3962 93 36.2147C94.6009 41.5129 89.7277 46.5844 89.3384 50.2559C85.1415 52 78 49 78 41.5Z" stroke="black" stroke-width="4" stroke-linecap="round"/>
<path d="M39 64.5C43.5 60.5 52.6048 58.7574 56.8018 61.5669C60.19 63.835 60.5577 66.7855 59.818 69.9014C62.8341 68.8028 67.3445 64.5 67 57.5C66.6 49.3717 54.7557 47.5 52.0235 50.2558C48.2835 54.0996 44.2264 58.5528 39 64.5Z" fill="#EFBBD1" stroke="black" stroke-width="4" stroke-linecap="round"/>
<path d="M20 41.5L29.5 30" stroke="black" stroke-width="4" stroke-linecap="round"/>
<path d="M25 43.5L34.5 32" stroke="black" stroke-width="4" stroke-linecap="round"/>
<path d="M32 53C40 48.3103 58.1429 32.6897 61 28" stroke="black" stroke-width="4" stroke-linecap="round"/>
</svg>
