<svg width="56" height="51" viewBox="0 0 56 51" fill="none" xmlns="http://www.w3.org/2000/svg">
<path d="M11.8659 19.9796C12.8537 21.6157 9.89024 24.2336 10.5488 24.8881C11.2073 25.5425 17.1341 23.2519 17.1341 19.9796C20.5366 19.3251 28 17.0999 28 10.817C28 2.9634 19.439 1 14.5 1C9.56098 1 1 3.29064 1 10.817C1 17.3617 7.36585 19.5432 11.8659 19.9796Z" stroke="#E5E5E5" stroke-width="2" stroke-linejoin="round"/>
<path d="M38.8659 44.9796C39.8537 46.6157 36.8902 49.2336 37.5488 49.8881C38.2073 50.5425 44.1341 48.2519 44.1341 44.9796C47.5366 44.3251 55 42.0999 55 35.817C55 27.9634 46.439 26 41.5 26C36.561 26 28 28.2906 28 35.817C28 42.3617 34.3659 44.5432 38.8659 44.9796Z" stroke="#E5E5E5" stroke-width="2" stroke-linejoin="round"/>
</svg>
