<svg width="76" height="62" viewBox="0 0 76 62" fill="none" xmlns="http://www.w3.org/2000/svg">
<path fill-rule="evenodd" clip-rule="evenodd" d="M29.7713 30.0157C30.4855 29.8659 31.1993 29.7163 31.9188 29.5807C35 29 41.5599 29.9918 33.9229 32.4702C26.2858 34.9485 21 40.299 21 46.5C21 55.0604 31.0736 62 43.5 62C55.9264 62 66 55.0604 66 46.5C66 46.3327 65.9962 46.166 65.9885 46H66C71.5229 46 76 39.2843 76 31C76 22.7157 71.5229 16 66 16H55.5H47.7419L43 9L42.9446 9.0189C39.3825 3.69518 31.5677 0 22.5 0C10.0736 0 0 6.93959 0 15.5C0 24.0604 10.0736 31 22.5 31C25.0776 31 27.4271 30.5073 29.7713 30.0157ZM22.5 20C27.1944 20 31 17.9853 31 15.5C31 13.0147 27.1944 11 22.5 11C17.8056 11 14 13.0147 14 15.5C14 17.9853 17.8056 20 22.5 20ZM52 46.5C52 48.9853 48.1944 51 43.5 51C38.8056 51 35 48.9853 35 46.5C35 44.0147 38.8056 42 43.5 42C48.1944 42 52 44.0147 52 46.5Z" fill="white"/>
<path fill-rule="evenodd" clip-rule="evenodd" d="M65.4089 42C64.7078 40.329 63.6089 38.5576 62.1674 36.6191C60.2888 34.0926 57.7295 31.1541 54.4656 27.6391C53.714 26.8297 52.4485 26.7828 51.6391 27.5344C50.8297 28.286 50.7828 29.5515 51.5344 30.3609C54.7705 33.8459 57.2112 36.6574 58.9576 39.0059C60.4883 41.0644 61.4124 42.6725 61.8915 43.9818L61.9927 46.1838C61.9976 46.2886 62 46.394 62 46.5C62 49.0875 60.4813 51.8648 57.1407 54.1661C53.8172 56.4556 49.0067 58 43.5 58C37.9933 58 33.1828 56.4556 29.8593 54.1661C26.5187 51.8648 25 49.0875 25 46.5C25 42.7877 28.3147 38.4955 35.1576 36.2749C36.2127 35.9325 37.1292 35.5822 37.8939 35.2133C38.5885 34.8782 39.4617 34.3867 40.1649 33.6465C40.901 32.8717 42.0477 31.0837 41.1858 28.8651C40.5267 27.1687 39.0833 26.458 38.5914 26.235C37.359 25.6765 35.8792 25.5015 34.821 25.4445C33.6567 25.3817 32.337 25.4314 31.1781 25.6498C30.4182 25.793 29.6708 25.9498 28.9684 26.0971L28.9503 26.1009C26.5585 26.6024 24.6012 27 22.5 27C16.9933 27 12.1828 25.4556 8.85932 23.1661C5.51871 20.8648 4 18.0875 4 15.5C4 12.9125 5.51871 10.1352 8.85932 7.83388C12.1828 5.54435 16.9933 4 22.5 4C30.6682 4 37.0138 7.34789 39.6202 11.2433L41.3291 13.7973L41.4016 13.7725L44.1759 17.8679C43.0025 18.5103 41.9252 19.2463 41.0858 20.0858C40.3047 20.8668 40.3047 22.1332 41.0858 22.9142C41.8668 23.6953 43.1332 23.6953 43.9142 22.9142C44.9459 21.8825 46.8475 20.8793 49.1367 20H66C67.0079 20 68.41 20.6129 69.7429 22.6122C71.0571 24.5836 72 27.5374 72 31C72 34.4626 71.0571 37.4164 69.7429 39.3878C68.41 41.3871 67.0079 42 66 42H65.4089ZM67.9675 45.7098C72.5482 44.3389 76 38.2741 76 31C76 22.7157 71.5229 16 66 16H47.7419L43 9L42.9446 9.0189C39.3825 3.69518 31.5677 0 22.5 0C10.0736 0 0 6.93959 0 15.5C0 24.0604 10.0736 31 22.5 31C24.7425 31 26.8123 30.6271 28.8562 30.2064C29.1616 30.1436 29.4665 30.0796 29.7713 30.0157C30.4855 29.8659 31.1993 29.7163 31.9188 29.5807C32.2309 29.5219 32.5786 29.4792 32.9436 29.4525C33.1691 29.4361 33.4013 29.4257 33.6357 29.4215C36.7444 29.3653 40.2543 30.3821 34.0683 32.4226C34.0204 32.4384 33.9719 32.4543 33.9229 32.4702C33.4579 32.6211 33.0016 32.7827 32.5546 32.9544C31.8695 33.2177 31.2065 33.5049 30.5679 33.8144C30.4258 33.8833 30.285 33.9532 30.1454 34.0242C24.5978 36.8471 21 41.3841 21 46.5C21 55.0604 31.0736 62 43.5 62C55.1929 62 64.8025 55.8555 65.8963 47.9979C65.9422 47.6681 65.9731 47.3354 65.9885 46.9999C65.9962 46.8339 66 46.6673 66 46.5C66 46.3327 65.9962 46.166 65.9885 46H66C66.2132 46 66.4248 45.99 66.6347 45.9703C67.0878 45.9277 67.5327 45.8399 67.9675 45.7098ZM30.382 22.2171C28.1599 23.3935 25.3664 24 22.5 24C19.6336 24 16.8401 23.3935 14.618 22.2171C12.575 21.1355 10 18.9544 10 15.5C10 12.0456 12.575 9.86449 14.618 8.78287C16.8401 7.6065 19.6336 7 22.5 7C25.3664 7 28.1599 7.6065 30.382 8.78287C32.425 9.86449 35 12.0456 35 15.5C35 18.9544 32.425 21.1355 30.382 22.2171ZM51.382 53.2171C49.1599 54.3935 46.3664 55 43.5 55C40.6336 55 37.8401 54.3935 35.618 53.2171C33.575 52.1355 31 49.9544 31 46.5C31 43.0456 33.575 40.8645 35.618 39.7829C37.8401 38.6065 40.6336 38 43.5 38C46.3664 38 49.1599 38.6065 51.382 39.7829C53.425 40.8645 56 43.0456 56 46.5C56 49.9544 53.425 52.1355 51.382 53.2171ZM31 15.5C31 17.9853 27.1944 20 22.5 20C17.8056 20 14 17.9853 14 15.5C14 13.0147 17.8056 11 22.5 11C27.1944 11 31 13.0147 31 15.5ZM43.5 51C48.1944 51 52 48.9853 52 46.5C52 44.0147 48.1944 42 43.5 42C38.8056 42 35 44.0147 35 46.5C35 48.9853 38.8056 51 43.5 51Z" fill="black"/>
</svg>
