<svg width="76" height="62" viewBox="0 0 76 62" fill="none" xmlns="http://www.w3.org/2000/svg">
<path fill-rule="evenodd" clip-rule="evenodd" d="M29.7713 31.9843C30.4855 32.1341 31.1993 32.2837 31.9188 32.4193C35 33 41.5599 32.0082 33.9229 29.5298C26.2858 27.0515 21 21.701 21 15.5C21 6.93959 31.0736 0 43.5 0C55.9264 0 66 6.93959 66 15.5C66 15.6673 65.9962 15.834 65.9885 16H66C71.5229 16 76 22.7157 76 31C76 39.2843 71.5229 46 66 46H55.5H47.7419L43 53L42.9446 52.9811C39.3825 58.3048 31.5677 62 22.5 62C10.0736 62 0 55.0604 0 46.5C0 37.9396 10.0736 31 22.5 31C25.0776 31 27.4271 31.4927 29.7713 31.9843ZM22.5 42C27.1944 42 31 44.0147 31 46.5C31 48.9853 27.1944 51 22.5 51C17.8056 51 14 48.9853 14 46.5C14 44.0147 17.8056 42 22.5 42ZM52 15.5C52 13.0147 48.1944 11 43.5 11C38.8056 11 35 13.0147 35 15.5C35 17.9853 38.8056 20 43.5 20C48.1944 20 52 17.9853 52 15.5Z" fill="white"/>
<path fill-rule="evenodd" clip-rule="evenodd" d="M65.4089 20C64.7078 21.671 63.6089 23.4424 62.1674 25.3809C60.2888 27.9074 57.7295 30.8459 54.4656 34.3609C53.714 35.1703 52.4485 35.2172 51.6391 34.4656C50.8297 33.714 50.7828 32.4485 51.5344 31.6391C54.7705 28.1541 57.2112 25.3426 58.9576 22.9941C60.4883 20.9356 61.4124 19.3275 61.8915 18.0182L61.9927 15.8162C61.9976 15.7114 62 15.606 62 15.5C62 12.9125 60.4813 10.1352 57.1407 7.83387C53.8172 5.54435 49.0067 4 43.5 4C37.9933 4 33.1828 5.54435 29.8593 7.83387C26.5187 10.1352 25 12.9125 25 15.5C25 19.2123 28.3147 23.5045 35.1576 25.7251C36.2127 26.0675 37.1292 26.4178 37.8939 26.7867C38.5885 27.1218 39.4617 27.6133 40.1649 28.3535C40.901 29.1283 42.0477 30.9163 41.1858 33.1349C40.5267 34.8313 39.0833 35.542 38.5914 35.765C37.359 36.3235 35.8792 36.4985 34.821 36.5555C33.6567 36.6183 32.337 36.5686 31.1781 36.3502C30.4182 36.207 29.6708 36.0502 28.9684 35.9029L28.9503 35.8991C26.5585 35.3976 24.6012 35 22.5 35C16.9933 35 12.1828 36.5444 8.85932 38.8339C5.51871 41.1352 4 43.9125 4 46.5C4 49.0875 5.51871 51.8648 8.85932 54.1661C12.1828 56.4556 16.9933 58 22.5 58C30.6682 58 37.0138 54.6521 39.6202 50.7567L41.3291 48.2027L41.4016 48.2275L44.1759 44.1321C43.0025 43.4897 41.9252 42.7537 41.0858 41.9142C40.3047 41.1332 40.3047 39.8668 41.0858 39.0858C41.8668 38.3047 43.1332 38.3047 43.9142 39.0858C44.9459 40.1175 46.8475 41.1207 49.1367 42H66C67.0079 42 68.41 41.3871 69.7429 39.3878C71.0571 37.4164 72 34.4626 72 31C72 27.5374 71.0571 24.5836 69.7429 22.6122C68.41 20.6129 67.0079 20 66 20H65.4089ZM67.9675 16.2902C72.5482 17.6611 76 23.7259 76 31C76 39.2843 71.5229 46 66 46H47.7419L43 53L42.9446 52.9811C39.3825 58.3048 31.5677 62 22.5 62C10.0736 62 0 55.0604 0 46.5C0 37.9396 10.0736 31 22.5 31C24.7425 31 26.8123 31.3729 28.8562 31.7936C29.1616 31.8564 29.4665 31.9204 29.7713 31.9843C30.4855 32.1341 31.1993 32.2837 31.9188 32.4193C32.2309 32.4781 32.5786 32.5208 32.9436 32.5475C33.1691 32.5639 33.4013 32.5743 33.6357 32.5785C36.7444 32.6347 40.2543 31.6179 34.0683 29.5774C34.0204 29.5616 33.9719 29.5457 33.9229 29.5298C33.4579 29.3789 33.0016 29.2173 32.5546 29.0456C31.8695 28.7823 31.2065 28.4951 30.5679 28.1856C30.4258 28.1167 30.285 28.0468 30.1454 27.9758C24.5978 25.1529 21 20.6159 21 15.5C21 6.93959 31.0736 0 43.5 0C55.1929 0 64.8025 6.1445 65.8963 14.0021C65.9422 14.3319 65.9731 14.6646 65.9885 15.0001C65.9962 15.1661 66 15.3327 66 15.5C66 15.6673 65.9962 15.834 65.9885 16H66C66.2132 16 66.4248 16.01 66.6347 16.0297C67.0878 16.0723 67.5327 16.1601 67.9675 16.2902ZM30.382 39.7829C28.1599 38.6065 25.3664 38 22.5 38C19.6336 38 16.8401 38.6065 14.618 39.7829C12.575 40.8645 10 43.0456 10 46.5C10 49.9544 12.575 52.1355 14.618 53.2171C16.8401 54.3935 19.6336 55 22.5 55C25.3664 55 28.1599 54.3935 30.382 53.2171C32.425 52.1355 35 49.9544 35 46.5C35 43.0456 32.425 40.8645 30.382 39.7829ZM51.382 8.78287C49.1599 7.60649 46.3664 7 43.5 7C40.6336 7 37.8401 7.60649 35.618 8.78287C33.575 9.86449 31 12.0456 31 15.5C31 18.9544 33.575 21.1355 35.618 22.2171C37.8401 23.3935 40.6336 24 43.5 24C46.3664 24 49.1599 23.3935 51.382 22.2171C53.425 21.1355 56 18.9544 56 15.5C56 12.0456 53.425 9.86449 51.382 8.78287ZM31 46.5C31 44.0147 27.1944 42 22.5 42C17.8056 42 14 44.0147 14 46.5C14 48.9853 17.8056 51 22.5 51C27.1944 51 31 48.9853 31 46.5ZM43.5 11C48.1944 11 52 13.0147 52 15.5C52 17.9853 48.1944 20 43.5 20C38.8056 20 35 17.9853 35 15.5C35 13.0147 38.8056 11 43.5 11Z" fill="black"/>
</svg>
