<svg width="76" height="30" viewBox="0 0 76 30" fill="none" xmlns="http://www.w3.org/2000/svg">
<mask id="path-1-inside-1" fill="white">
<path fill-rule="evenodd" clip-rule="evenodd" d="M43 0H66C71.5229 0 76 6.71573 76 15C76 23.2843 71.5229 30 66 30H43C38 30 32 21 32 21L6.5 21C2.91015 21 0 18.0898 0 14.5C0 10.9101 2.91015 8 6.5 8L32 8C32 8 36 3.01335e-06 43 0Z"/>
</mask>
<path d="M43 0L43 -4L43 -4L43 0ZM32 21L35.3282 18.7812L34.1407 17L32 17L32 21ZM6.5 21L6.5 17H6.5V21ZM6.5 8L6.5 4H6.5V8ZM32 8L32 12L34.4721 12L35.5777 9.78885L32 8ZM66 -4H43V4H66V-4ZM80 15C80 10.1783 78.7043 5.63216 76.3993 2.1746C74.1129 -1.255 70.515 -4 66 -4V4C67.0079 4 68.41 4.61287 69.7429 6.6122C71.0571 8.58357 72 11.5374 72 15H80ZM66 34C70.515 34 74.1129 31.255 76.3993 27.8254C78.7043 24.3678 80 19.8217 80 15H72C72 18.4626 71.0571 21.4164 69.7429 23.3878C68.41 25.3871 67.0079 26 66 26V34ZM43 34H66V26H43V34ZM32 21C28.6718 23.2188 28.6722 23.2195 28.6727 23.2202C28.6729 23.2204 28.6734 23.2212 28.6737 23.2217C28.6745 23.2228 28.6753 23.2241 28.6763 23.2255C28.6781 23.2283 28.6803 23.2316 28.6829 23.2355C28.6881 23.2432 28.6948 23.2531 28.7029 23.2651C28.7192 23.2892 28.7412 23.3217 28.7689 23.362C28.8241 23.4427 28.9019 23.555 29.0004 23.6945C29.1972 23.9731 29.4783 24.3621 29.8298 24.8251C30.5279 25.7445 31.5277 26.9873 32.7169 28.2465C33.8904 29.489 35.342 30.8479 36.9531 31.922C38.504 32.9559 40.6082 34 43 34V26C42.8918 26 42.371 25.9191 41.3907 25.2655C40.4705 24.6521 39.4846 23.761 38.5331 22.7535C37.5973 21.7627 36.7846 20.7555 36.2014 19.9874C35.9123 19.6067 35.6856 19.2926 35.5347 19.079C35.4594 18.9724 35.4034 18.8913 35.3683 18.8401C35.3508 18.8146 35.3386 18.7965 35.3318 18.7865C35.3284 18.7815 35.3264 18.7785 35.3258 18.7776C35.3255 18.7771 35.3255 18.7772 35.3259 18.7778C35.3261 18.7781 35.3264 18.7785 35.3268 18.7791C35.327 18.7794 35.3273 18.7799 35.3274 18.7801C35.3278 18.7806 35.3282 18.7812 32 21ZM32 17L6.5 17L6.5 25L32 25L32 17ZM6.5 17C5.11929 17 4 15.8807 4 14.5H-4C-4 20.299 0.701014 25 6.5 25V17ZM4 14.5C4 13.1193 5.11929 12 6.5 12V4C0.701011 4 -4 8.70101 -4 14.5H4ZM6.5 12L32 12L32 4L6.5 4L6.5 12ZM43 -4C37.902 -4 34.1679 -1.09424 31.9569 1.26424C30.8148 2.48238 29.952 3.68525 29.3742 4.5799C29.0828 5.03107 28.8574 5.41406 28.6992 5.6952C28.62 5.83604 28.5573 5.95211 28.5111 6.03928C28.488 6.08289 28.4691 6.11935 28.4543 6.14814C28.4469 6.16254 28.4405 6.17503 28.4352 6.18555C28.4325 6.19081 28.4301 6.19558 28.428 6.19985C28.4269 6.20198 28.4259 6.20399 28.4249 6.20587C28.4245 6.20681 28.4238 6.20813 28.4236 6.2086C28.4229 6.20989 28.4223 6.21114 32 8C35.5777 9.78885 35.5771 9.79005 35.5765 9.79121C35.5764 9.79156 35.5758 9.7927 35.5754 9.79339C35.5747 9.79479 35.5741 9.79607 35.5735 9.79724C35.5723 9.79957 35.5714 9.80144 35.5707 9.80285C35.5692 9.80568 35.5687 9.80669 35.5691 9.80596C35.5699 9.80448 35.5742 9.79601 35.5821 9.78103C35.598 9.75102 35.628 9.69521 35.6718 9.6173C35.7598 9.46094 35.9015 9.21893 36.0945 8.9201C36.4855 8.31475 37.0602 7.51762 37.7931 6.73577C39.3321 5.09424 41.098 4 43 4L43 -4Z" fill="black" mask="url(#path-1-inside-1)"/>
<path d="M44 12C45.1046 12 46 11.1046 46 10C46 8.89543 45.1046 8 44 8V12ZM33 12H44V8H33V12Z" fill="black"/>
<path d="M44 21C45.1046 21 46 20.1046 46 19C46 17.8954 45.1046 17 44 17V21ZM33 21H44V17H33V21Z" fill="black"/>
</svg>
