<svg width="108" height="96" viewBox="0 0 108 96" fill="none" xmlns="http://www.w3.org/2000/svg">
<path d="M86.4645 84.6946C85.4195 83.0186 83.8576 80.5934 82.2465 77.9502M82.2465 77.9502C79.4299 81.4589 82.0037 85.878 84.5578 88.1344C87.275 90.5349 92.0436 92.5156 98.2565 87.857C99.3808 87.2217 100.913 86.2471 101.62 85.3005C104.248 81.783 101.899 77.4723 100.419 74.3611C98.9394 71.2498 96.1289 69.716 94.4701 70.2341C93.0218 69.6018 91.3946 70.3292 90.5811 71.0516C87.887 69.2941 86.1739 71.0304 85.2576 72.8158C82.2489 67.7922 79.5676 60.6157 76.2054 62.5155C72.751 64.4674 78.262 71.4129 82.2465 77.9502Z" stroke="#E5E5E5" stroke-width="2" stroke-linecap="round" stroke-linejoin="round"/>
<path d="M1 32V55.3333L7.67857 51.8333L11.9286 60L16.1786 57.6667L11.9286 49.5L18 46L1 32Z" stroke="#E5E5E5" stroke-width="2" stroke-linejoin="round"/>
<path d="M32.499 41.5569C31.9946 42.2223 34.8915 63.2798 35.5569 63.7843C36.2223 64.2888 42.5761 62.8186 42.5761 62.8186C42.5761 62.8186 44.4052 80.4471 45.0706 80.9515C45.736 81.456 59.7744 79.5247 60.2789 78.8593C60.7833 78.1939 55.3919 39.0035 54.7265 38.499C54.0611 37.9946 33.0035 40.8915 32.499 41.5569Z" stroke="#E5E5E5" stroke-width="2" stroke-linejoin="round"/>
<path d="M49.8428 46.3229L50.4865 51.0024L39.9578 52.4508M39.9578 52.4508L42.4801 49.1238M39.9578 52.4508L43.2848 54.9731" stroke="#E5E5E5" stroke-width="2" stroke-linecap="round" stroke-linejoin="round"/>
<rect x="16" y="10.4337" width="72.0749" height="16.5324" rx="2" transform="rotate(-6.7197 16 10.4337)" stroke="#E5E5E5" stroke-width="2"/>
</svg>
